<?xml version="1.0" encoding="UTF-8"?>
<svg version="1.1" xmlns="http://www.w3.org/2000/svg" width="512" height="512">
<path d="M0 0 C1.16611816 0.56847656 2.33223633 1.13695312 3.53369141 1.72265625 C4.50940094 2.18987595 4.50940094 2.18987595 5.50482178 2.66653442 C7.63870345 3.69210608 9.76153055 4.73873455 11.88525391 5.78515625 C13.39599476 6.51454882 14.9075676 7.2422204 16.41992188 7.96826172 C19.56086492 9.47808986 22.69810097 10.99522896 25.83251953 12.51855469 C33.07542961 16.03438864 40.35226627 19.47827438 47.63525391 22.91015625 C48.33670532 23.2409317 49.03815674 23.57170715 49.76086426 23.9125061 C81.65789151 38.93435468 114.12070293 53.07601489 147.47998047 64.54003906 C163.13082593 69.9545636 163.13082593 69.9545636 166.20059681 74.02835369 C167.72626333 77.23985187 167.88016433 79.38321663 167.87101746 82.92915344 C167.87720345 84.78216316 167.87720345 84.78216316 167.8835144 86.67260742 C167.87289844 88.03344947 167.86199403 89.39428929 167.85083008 90.75512695 C167.84998347 92.19426964 167.85045961 93.63341361 167.85215759 95.07255554 C167.85301765 98.97307539 167.83539025 102.87331797 167.81443572 106.77377343 C167.79567071 110.85235704 167.79391862 114.93094714 167.7903595 119.00956726 C167.78103851 126.73014286 167.75642402 134.45059089 167.72631103 142.17111033 C167.69276868 150.96185118 167.67628143 159.75259814 167.66122472 168.54338706 C167.6298745 186.62404909 167.57711297 204.70459241 167.51025391 222.78515625 C168.1863118 222.91570908 168.86236969 223.0462619 169.55891418 223.18077087 C170.89764839 223.4430825 170.89764839 223.4430825 172.26342773 223.71069336 C173.14573563 223.88249619 174.02804352 224.05429901 174.93708801 224.23130798 C200.26057828 229.68193642 221.59731674 247.33855959 235.65380859 268.50732422 C245.42007687 283.7209999 251.62158945 301.68871635 252.51025391 319.78515625 C252.58953125 321.30109375 252.58953125 321.30109375 252.67041016 322.84765625 C253.27747404 345.65214302 246.53807777 365.15611029 235.51025391 384.78515625 C235.91727539 385.25783936 236.32429688 385.73052246 236.74365234 386.2175293 C237.28022461 386.84183838 237.81679688 387.46614746 238.36962891 388.109375 C238.90040039 388.72643311 239.43117188 389.34349121 239.97802734 389.97924805 C241.26537576 391.49653871 242.51721485 393.04385742 243.76025391 394.59765625 C246.64418229 396.89169019 247.74837712 397.16986083 251.26025391 397.72265625 C262.55101184 399.55910319 270.28263051 409.08306902 278.02587891 416.83203125 C279.21144533 418.0104803 280.39730284 419.18863656 281.58343506 420.36651611 C284.0560902 422.82579473 286.52281066 425.2908481 288.98583984 427.75976562 C292.12482014 430.90464626 295.28168644 434.03086944 298.4437294 437.1525383 C300.89414405 439.5769665 303.33285292 442.01291714 305.76848602 444.45218658 C306.92702017 445.60904086 308.08948502 446.76197396 309.25611115 447.91066742 C324.05693505 462.5087449 324.05693505 462.5087449 325.17431641 472.91015625 C325.07929886 482.33589636 324.20344197 489.62068571 317.64306641 496.83984375 C311.4295161 502.66655824 305.29208637 505.21768357 296.69775391 505.28515625 C294.73902344 505.3315625 294.73902344 505.3315625 292.74072266 505.37890625 C281.07813609 504.36716982 273.20750745 495.22247202 265.45947266 487.3984375 C264.23093614 486.17327692 263.00165888 484.94885872 261.77168274 483.72514343 C259.2078345 481.16862973 256.65315214 478.6033889 254.10473633 476.03149414 C250.85595562 472.75422874 247.58523569 469.49993112 244.3072691 466.25188923 C241.76810071 463.7308862 239.24108102 461.19797378 236.71744728 458.66142845 C235.51675918 457.45743185 234.31242041 456.25706337 233.10422325 455.06060219 C218.32907278 440.39763475 218.32907278 440.39763475 217.04541016 430.03125 C216.33300925 425.71004452 214.06913078 423.66507882 210.94775391 420.84765625 C210.42761719 420.35458984 209.90748047 419.86152344 209.37158203 419.35351562 C208.09777558 418.14982696 206.80578342 416.96543273 205.51025391 415.78515625 C204.51767578 416.30464844 203.52509766 416.82414062 202.50244141 417.359375 C186.74858379 425.49310711 170.42914152 431.8823726 152.51025391 432.78515625 C151.10453125 432.86443359 151.10453125 432.86443359 149.67041016 432.9453125 C122.92322342 433.7210821 98.18620737 424.46589726 77.51025391 407.78515625 C76.73037109 407.1715625 75.95048828 406.55796875 75.14697266 405.92578125 C68.1784841 400.13314778 62.92414432 392.99018424 57.51025391 385.78515625 C53.66834351 387.20041289 50.33077252 388.99275982 46.84619141 391.13671875 C45.73614746 391.81605469 44.62610352 392.49539063 43.48242188 393.1953125 C42.89603943 393.55641113 42.30965698 393.91750977 41.70550537 394.28955078 C38.59350719 396.20539716 35.4735659 398.10822195 32.35400391 400.01171875 C31.71187958 400.40385559 31.06975525 400.79599243 30.40817261 401.20001221 C23.43464253 405.45258568 16.41461689 409.62572307 9.38525391 413.78515625 C8.79717957 414.1336261 8.20910522 414.48209595 7.60321045 414.84112549 C-5.09795283 422.36590496 -5.09795283 422.36590496 -10.48974609 421.78515625 C-13.69602648 420.41784087 -16.63064939 418.64119331 -19.61474609 416.84765625 C-20.51926514 416.31696533 -21.42378418 415.78627441 -22.35571289 415.23950195 C-25.41065329 413.4380812 -28.45114793 411.61399825 -31.48974609 409.78515625 C-32.58851074 409.12676758 -33.68727539 408.46837891 -34.81933594 407.79003906 C-43.0743719 402.8397799 -51.29054771 397.8272671 -59.48974609 392.78515625 C-60.58915527 392.10952637 -61.68856445 391.43389648 -62.82128906 390.73779297 C-75.26964265 383.06987839 -87.59786766 375.29538968 -99.48974609 366.78515625 C-100.61606445 365.98343994 -100.61606445 365.98343994 -101.76513672 365.16552734 C-138.5758739 338.86250059 -172.2896715 307.25724792 -181.0027647 261.06542587 C-181.55153174 257.36897286 -181.83596728 253.68860123 -182.04316711 249.96099854 C-182.08526757 249.21818327 -182.12736802 248.47536801 -182.17074424 247.71004319 C-182.58784876 239.79664334 -182.63804263 231.89417129 -182.63500977 223.97167969 C-182.63801253 222.37139306 -182.64141757 220.77110715 -182.64518738 219.17082214 C-182.65390533 214.88443578 -182.65635989 210.59806945 -182.65700316 206.31167507 C-182.6577192 203.62820419 -182.65986358 200.94473825 -182.66250038 198.26126862 C-182.67170418 188.88625266 -182.67584041 179.5112508 -182.67504883 170.13623047 C-182.67444521 161.41260186 -182.68506512 152.68903451 -182.70079249 143.96542144 C-182.71385833 136.44913625 -182.71923332 128.93287117 -182.71859342 121.41657472 C-182.71833871 116.93807188 -182.72117683 112.45962396 -182.73177147 107.98113251 C-182.74143951 103.78176784 -182.74154062 99.5825109 -182.73425484 95.38314247 C-182.7332083 93.84362188 -182.73557601 92.3040946 -182.7416153 90.76458549 C-182.74932654 88.6629779 -182.74469692 86.56174353 -182.73698425 84.46014404 C-182.73752902 83.28481487 -182.73807379 82.1094857 -182.73863506 80.8985405 C-182.42175403 76.93463477 -181.6910601 73.96542227 -178.81762695 71.14233398 C-175.76273651 69.36130242 -172.57477924 68.20953627 -169.24365234 67.0703125 C-167.76702574 66.55055643 -166.2904661 66.03061008 -164.81396484 65.51049805 C-164.03843262 65.24006683 -163.26290039 64.96963562 -162.46386719 64.69100952 C-116.05582914 48.46193821 -71.36504612 27.42101626 -27.17700195 5.95825195 C-25.14891159 4.97475929 -23.11810435 3.99683938 -21.08398438 3.02587891 C-19.53805696 2.28652231 -17.99761568 1.5352249 -16.46972656 0.75927734 C-10.86151721 -1.94927772 -5.76489661 -2.0068648 0 0 Z M-15.23974609 19.390625 C-16.39087891 19.95531494 -17.54201172 20.52000488 -18.72802734 21.10180664 C-19.64575928 21.55839157 -19.64575928 21.55839157 -20.58203125 22.02420044 C-23.85543022 23.65163144 -27.14235053 25.25140728 -30.42724609 26.85546875 C-31.43875732 27.35068779 -31.43875732 27.35068779 -32.47070312 27.85591125 C-43.72078402 33.35590402 -55.10366265 38.57395577 -66.48974609 43.78515625 C-68.20484375 44.57140381 -68.20484375 44.57140381 -69.95458984 45.37353516 C-97.70327271 58.05786699 -125.73115313 70.00470874 -154.49853516 80.19360352 C-155.49984215 80.54892403 -155.49984215 80.54892403 -156.52137756 80.91142273 C-158.31899994 81.5474015 -160.11854128 82.17794889 -161.91821289 82.80810547 C-164.38588462 83.54467618 -164.38588462 83.54467618 -165.48974609 84.78515625 C-165.59082501 86.75016518 -165.62052053 88.71885766 -165.62345886 90.6864624 C-165.62772385 91.97009674 -165.63198883 93.25373108 -165.63638306 94.57626343 C-165.63603345 96.01275638 -165.63557187 97.4492493 -165.63500977 98.88574219 C-165.63800011 100.38874394 -165.64140235 101.89174492 -165.64518738 103.39474487 C-165.6540585 107.49514255 -165.65636719 111.59551937 -165.65700316 115.69592571 C-165.65771355 118.26485854 -165.65984797 120.83378607 -165.66250038 123.40271759 C-165.67177404 132.38762243 -165.675834 141.37251241 -165.67504883 150.35742188 C-165.67445206 158.68959042 -165.68491916 167.02169336 -165.70079249 175.35384536 C-165.71396758 182.52950901 -165.71922837 189.70515156 -165.71859342 196.88082719 C-165.71834072 201.15551693 -165.72106175 205.4301488 -165.73177147 209.70482635 C-165.83626513 254.66167073 -160.66939582 287.55118751 -128.48974609 320.78515625 C-127.85294922 321.46191406 -127.21615234 322.13867188 -126.56005859 322.8359375 C-122.12990044 327.44626955 -117.2210528 331.44350412 -112.21679688 335.41308594 C-110.99840462 336.38104812 -109.78356009 337.3534841 -108.57128906 338.32910156 C-96.67435506 347.89302616 -84.31048033 356.50932529 -71.48974609 364.78515625 C-70.74241211 365.27129395 -69.99507813 365.75743164 -69.22509766 366.25830078 C-56.98861734 374.20345794 -44.44020013 381.62462706 -31.86938477 389.02416992 C-31.20766769 389.41443863 -30.54595062 389.80470734 -29.86418152 390.20680237 C-28.56356227 390.97360982 -27.2619925 391.73880757 -25.95942688 392.50230408 C-21.11305118 395.36090926 -16.44424518 398.43860682 -11.83935547 401.67456055 C-8.81445735 403.10434666 -7.63168325 402.86587763 -4.48974609 401.78515625 C-2.4561326 400.76007144 -0.46267471 399.6536941 1.49853516 398.49609375 C2.35699036 397.99258141 2.35699036 397.99258141 3.23278809 397.47889709 C5.10062516 396.38010193 6.96179455 395.27055356 8.82275391 394.16015625 C10.1131994 393.39694074 11.40380987 392.6340041 12.69458008 391.87133789 C24.76299327 384.71805003 36.66861013 377.30747794 48.51025391 369.78515625 C47.87269597 365.43398763 46.8756542 361.35893682 45.57275391 357.16015625 C45.23373047 356.05414063 44.89470703 354.948125 44.54541016 353.80859375 C43.68965305 351.30913714 42.71680421 349.12141054 41.51025391 346.78515625 C40.57681152 347.37248535 40.57681152 347.37248535 39.62451172 347.97167969 C33.35376044 351.91362352 27.07255814 355.83839888 20.78222656 359.74902344 C18.69395907 361.04854224 16.60750343 362.35098024 14.5234375 363.65722656 C11.83884447 365.33701876 9.14496755 367.00072767 6.44775391 368.66015625 C5.24650879 369.4176416 5.24650879 369.4176416 4.02099609 370.19042969 C-0.44998164 372.91561518 -4.11212365 375.07458695 -9.48974609 374.78515625 C-13.36925665 373.12531694 -16.89688011 370.98705758 -20.48974609 368.78515625 C-22.2513396 367.76835649 -24.01433505 366.75398122 -25.77880859 365.7421875 C-27.55923596 364.69703938 -29.3378427 363.64878447 -31.11474609 362.59765625 C-32.53762939 361.75618042 -32.53762939 361.75618042 -33.98925781 360.89770508 C-42.01925138 356.11923167 -49.89509421 351.13398211 -57.68652344 345.97705078 C-59.3098605 344.90405707 -60.94038908 343.84196252 -62.57177734 342.78125 C-76.54053026 333.62799057 -89.97577765 323.84871865 -102.48974609 312.78515625 C-103.86259766 311.57859375 -103.86259766 311.57859375 -105.26318359 310.34765625 C-107.69625436 308.18492668 -110.10036984 305.99596702 -112.48974609 303.78515625 C-113.09044922 303.23859375 -113.69115234 302.69203125 -114.31005859 302.12890625 C-130.56915416 286.70167138 -140.86721645 266.29940743 -141.58771515 243.71414948 C-141.63355818 240.07835312 -141.64772214 236.44370319 -141.65087891 232.80761719 C-141.65551631 231.41540396 -141.66054219 230.02319199 -141.66592407 228.63098145 C-141.67894981 224.87510055 -141.68547209 221.11923743 -141.68993473 217.36333752 C-141.6928777 215.01425886 -141.69698445 212.66518495 -141.7014389 210.3161087 C-141.71507965 202.95795776 -141.72476648 195.59981781 -141.72864079 188.24165511 C-141.7331319 179.76098951 -141.75074265 171.28048424 -141.77964139 162.79986739 C-141.80124801 156.23065669 -141.81134431 149.6614912 -141.81268191 143.09224534 C-141.81372944 139.17361398 -141.81962776 135.25513405 -141.83750153 131.33654022 C-141.85396761 127.65596589 -141.85614503 123.97565723 -141.84736252 120.2950592 C-141.84622444 118.30294871 -141.8599477 116.31084706 -141.87411499 114.31878662 C-141.86854584 113.13010986 -141.86297668 111.94143311 -141.85723877 110.71673584 C-141.85870533 109.68587734 -141.86017189 108.65501884 -141.86168289 107.59292221 C-141.42484507 104.29521577 -140.47285536 102.43882817 -138.48974609 99.78515625 C-136.1738016 98.54522092 -134.10840839 97.61542268 -131.66552734 96.7265625 C-130.98040573 96.46126236 -130.29528412 96.19596222 -129.58940125 95.92262268 C-128.10824199 95.35043366 -126.62429187 94.78542789 -125.13793945 94.22686768 C-121.13286926 92.71926247 -117.15073054 91.15294589 -113.16552734 89.59375 C-112.35004425 89.27619751 -111.53456116 88.95864502 -110.69436646 88.63146973 C-102.87713441 85.57571594 -95.16879005 82.29636942 -87.48974609 78.91015625 C-86.84485229 78.62610931 -86.1999585 78.34206238 -85.53552246 78.04940796 C-74.84023452 73.32955978 -64.18970201 68.50871203 -53.55224609 63.66015625 C-52.81791351 63.32566467 -52.08358093 62.9911731 -51.32699585 62.64654541 C-43.83743835 59.22946268 -36.37910777 55.76663841 -29.00537109 52.10546875 C-27.86447021 51.54230957 -26.72356934 50.97915039 -25.5480957 50.39892578 C-23.45821937 49.35988234 -21.37504544 48.30718978 -19.30053711 47.23779297 C-14.10087715 44.64819585 -9.37051592 42.3203539 -3.48974609 43.78515625 C0.3314524 45.27053117 3.97230692 47.03859974 7.61837769 48.90994263 C10.8151727 50.54857672 14.03995937 52.13085402 17.26025391 53.72265625 C17.93366318 54.05729385 18.60707245 54.39193146 19.30088806 54.73670959 C26.77426242 58.43945078 34.34903397 61.91114928 41.94775391 65.34765625 C42.63870148 65.66033447 43.32964905 65.9730127 44.04153442 66.29516602 C48.85840581 68.47205838 53.681978 70.63368582 58.51025391 72.78515625 C59.14662781 73.06875 59.78300171 73.35234375 60.43865967 73.64453125 C72.88809511 79.18387585 85.37647246 84.58709131 98.06103516 89.56640625 C98.86484619 89.88294662 99.66865723 90.199487 100.49682617 90.52561951 C104.43397648 92.07415358 108.37584948 93.60791349 112.328125 95.11743164 C113.75746771 95.67427375 115.18667396 96.23146628 116.61572266 96.7890625 C117.27051102 97.03333984 117.92529938 97.27761719 118.59992981 97.52929688 C122.38761575 99.02314409 124.41321255 100.30068622 126.51025391 103.78515625 C126.89501476 106.1201973 126.89501476 106.1201973 126.90898132 108.74591064 C126.92778854 110.2434639 126.92778854 110.2434639 126.94697571 111.77127075 C126.94482307 113.40477982 126.94482307 113.40477982 126.94262695 115.07128906 C126.9528186 116.22279449 126.96301025 117.37429993 126.97351074 118.56069946 C127.00372472 122.36994235 127.0129198 126.17893411 127.02197266 129.98828125 C127.03881305 132.62816204 127.05696242 135.26803478 127.07637024 137.90789795 C127.12003693 144.14803146 127.14858276 150.38813883 127.17169362 156.62837863 C127.19874446 163.73361318 127.24265598 170.83871224 127.28798234 177.94385004 C127.380831 192.55755068 127.45028494 207.17128262 127.51025391 221.78515625 C135.10025391 221.45515625 142.69025391 221.12515625 150.51025391 220.78515625 C150.51025391 175.90515625 150.51025391 131.02515625 150.51025391 84.78515625 C141.33670375 80.93288107 141.33670375 80.93288107 132.08447266 77.34765625 C93.53303386 63.0049532 56.30926852 45.90708077 19.14152527 28.33210754 C17.84884958 27.72129007 16.555737 27.11139622 15.26216125 26.50248718 C11.94509167 24.94069638 8.63606354 23.36444124 5.33642578 21.76611328 C3.98293299 21.11746538 2.62941811 20.46886355 1.27587891 19.8203125 C0.65461121 19.51508163 0.03334351 19.20985077 -0.60675049 18.89537048 C-6.40746698 16.13298363 -9.61021585 16.59863162 -15.23974609 19.390625 Z M-15.39599609 63.50390625 C-16.60886248 64.10462251 -17.82175436 64.70528729 -19.03466797 65.3059082 C-19.9984436 65.78865707 -19.9984436 65.78865707 -20.98168945 66.28115845 C-38.57787834 75.07898547 -56.52285796 83.04330612 -74.54058838 90.93035889 C-77.36374818 92.16844728 -80.18245222 93.41656584 -83.00146484 94.6640625 C-94.13563095 99.57152971 -105.35965166 104.2039957 -116.68579102 108.65185547 C-118.19363159 109.24571045 -118.19363159 109.24571045 -119.73193359 109.8515625 C-120.6276709 110.20162354 -121.5234082 110.55168457 -122.44628906 110.91235352 C-124.44463338 111.61586721 -124.44463338 111.61586721 -125.48974609 112.78515625 C-125.59247811 114.47218364 -125.62495299 116.16352388 -125.63018799 117.85366821 C-125.63589813 118.95244797 -125.64160828 120.05122772 -125.64749146 121.18330383 C-125.64860931 122.39979111 -125.64972717 123.61627838 -125.65087891 124.86962891 C-125.65584381 126.14290543 -125.66080872 127.41618195 -125.66592407 128.7280426 C-125.67908163 132.23507651 -125.68550166 135.74209123 -125.68993473 139.24914598 C-125.69286522 141.4448208 -125.69697039 143.64049038 -125.7014389 145.83616257 C-125.71513399 152.71809065 -125.72478596 159.60000677 -125.72864079 166.48194754 C-125.73310109 174.40057413 -125.75054524 182.31902635 -125.77964139 190.23759997 C-125.80138044 196.36944218 -125.81135184 202.50123585 -125.81268191 208.63311613 C-125.81372295 212.28838318 -125.81947685 215.9434868 -125.83750153 219.59871292 C-125.95548831 244.96986929 -125.08580259 264.93235645 -107.48974609 284.78515625 C-106.38759766 286.06712891 -106.38759766 286.06712891 -105.26318359 287.375 C-100.66110729 292.63338616 -95.8961956 297.36650828 -90.48974609 301.78515625 C-89.98233887 302.20490723 -89.47493164 302.6246582 -88.95214844 303.05712891 C-68.26060368 320.13671294 -45.67665956 334.37752857 -22.81884766 348.34619141 C-20.76166398 349.61716002 -18.72785706 350.91632475 -16.70068359 352.234375 C-15.14220703 353.21857422 -15.14220703 353.21857422 -13.55224609 354.22265625 C-12.69759766 354.77824219 -11.84294922 355.33382813 -10.96240234 355.90625 C-7.34464522 357.19218263 -5.981434 356.4067336 -2.48974609 354.78515625 C2.16662973 352.20812618 6.66979372 349.3934092 11.17504883 346.56274414 C16.17387202 343.42398475 21.14486201 340.4053308 26.39697266 337.70703125 C35.50231242 333.18357416 35.50231242 333.18357416 41.48828125 325.41162109 C42.6591643 320.05713342 42.58466045 314.73203718 42.47753906 309.27685547 C42.67204167 294.462724 51.19360696 278.15930333 59.75317383 266.38842773 C61.66792913 263.65689736 62.55286312 262.278491 62.26025391 258.890625 C62.01275391 258.19582031 61.76525391 257.50101563 61.51025391 256.78515625 C53.47710038 255.79217363 53.47710038 255.79217363 45.51025391 256.78515625 C42.12817723 259.91879992 40.54997144 263.70031078 38.51025391 267.78515625 C30.60265528 278.21295952 16.28787175 285.6904648 3.51025391 287.78515625 C-8.50181412 288.83457249 -20.31782574 288.75736002 -31.48974609 283.78515625 C-32.42689453 283.37265625 -33.36404297 282.96015625 -34.32958984 282.53515625 C-43.8911973 277.81469928 -51.9143802 271.27248561 -56.67724609 261.66015625 C-58.11956623 258.80310949 -58.11956623 258.80310949 -60.48974609 256.78515625 C-65.71333481 255.44072891 -71.2024404 256.15677298 -76.48974609 256.78515625 C-76.68084961 257.55706299 -76.87195313 258.32896973 -77.06884766 259.12426758 C-77.94351746 262.61952601 -78.84131266 266.10843417 -79.73974609 269.59765625 C-80.04009766 270.81259766 -80.34044922 272.02753906 -80.64990234 273.27929688 C-81.10429688 275.02436523 -81.10429688 275.02436523 -81.56787109 276.8046875 C-81.84018555 277.87823486 -82.1125 278.95178223 -82.39306641 280.05786133 C-83.63177102 283.13835314 -84.61542227 284.18676338 -87.48974609 285.78515625 C-90.81342953 286.20061668 -92.78221389 286.12936111 -95.80224609 284.66015625 C-98.12413357 282.08028127 -98.17512527 280.22540024 -98.48974609 276.78515625 C-97.78075922 272.51173629 -96.59490814 268.38547967 -95.421875 264.21704102 C-94.86678978 262.22997214 -94.34335167 260.23632538 -93.82177734 258.24023438 C-93.47244141 256.97501953 -93.12310547 255.70980469 -92.76318359 254.40625 C-92.44784668 253.25568115 -92.13250977 252.1051123 -91.80761719 250.91967773 C-90.05827617 246.75891648 -87.56380053 243.82218347 -83.48974609 241.78515625 C-80.60906873 241.55228712 -77.7496209 241.36569685 -74.86474609 241.22265625 C-70.71912109 241.00609375 -70.71912109 241.00609375 -66.48974609 240.78515625 C-66.81974609 234.18515625 -67.14974609 227.58515625 -67.48974609 220.78515625 C-76.75189626 219.80349347 -76.75189626 219.80349347 -80.44287109 222.9375 C-81.20083984 223.85660156 -81.95880859 224.77570313 -82.73974609 225.72265625 C-86.82238184 230.59304889 -86.82238184 230.59304889 -90.61083984 231.68359375 C-94.17203609 231.80922618 -95.69907937 230.9379563 -98.48974609 228.78515625 C-99.99864078 225.76736688 -99.99000885 224.16192988 -99.48974609 220.78515625 C-97.97910029 218.57522039 -96.3136561 216.73138303 -94.44287109 214.81640625 C-92.47069127 212.87694937 -92.47069127 212.87694937 -91.09912109 210.75390625 C-88.91277977 207.82276733 -87.11570156 206.09544723 -83.42236328 205.390625 C-78.11716501 204.80672638 -72.82231225 204.74565576 -67.48974609 204.78515625 C-67.35697266 203.76035156 -67.22419922 202.73554688 -67.08740234 201.6796875 C-66.90910521 200.31899885 -66.73071486 198.9583224 -66.55224609 197.59765625 C-66.46523437 196.92412109 -66.37822266 196.25058594 -66.28857422 195.55664062 C-65.81149133 191.93434459 -65.25962575 188.3571204 -64.48974609 184.78515625 C-65.71951172 184.759375 -66.94927734 184.73359375 -68.21630859 184.70703125 C-69.84915541 184.65072619 -71.48196654 184.5933794 -73.11474609 184.53515625 C-74.32710937 184.51388672 -74.32710937 184.51388672 -75.56396484 184.4921875 C-80.95736117 184.27294375 -84.27691611 183.45398716 -88.48974609 179.78515625 C-92.15331099 175.26761352 -93.20708439 169.36893019 -94.67724609 163.84765625 C-94.94988281 162.87119141 -95.22251953 161.89472656 -95.50341797 160.88867188 C-98.04886491 151.47881161 -98.04886491 151.47881161 -97.48974609 146.78515625 C-95.55224609 143.84765625 -95.55224609 143.84765625 -92.48974609 141.78515625 C-89.38412595 141.67090267 -86.51746643 142.11892585 -83.48974609 142.78515625 C-83.31958984 143.41679687 -83.14943359 144.0484375 -82.97412109 144.69921875 C-80.88391109 152.41520673 -78.69919818 160.10254367 -76.48974609 167.78515625 C-63.71953707 169.35390131 -63.71953707 169.35390131 -51.68115234 166.00390625 C-46.86203871 161.85678057 -44.46302573 158.43644991 -43.75927734 152.17578125 C-43.5568719 148.8668637 -43.54641113 145.57579715 -43.56787109 142.26171875 C-43.59084407 133.045727 -39.08907987 126.71233203 -33.48974609 119.78515625 C-32.82974609 118.79515625 -32.16974609 117.80515625 -31.48974609 116.78515625 C-31.79267578 116.21595459 -32.09560547 115.64675293 -32.40771484 115.06030273 C-33.78334272 112.45533971 -35.13659398 109.83935986 -36.48974609 107.22265625 C-36.96669922 106.32740234 -37.44365234 105.43214844 -37.93505859 104.50976562 C-40.54938551 99.41182814 -42.21556799 95.6597772 -41.48974609 89.78515625 C-40.99474609 88.30015625 -40.99474609 88.30015625 -40.48974609 86.78515625 C-39.09935552 86.5064723 -37.70179063 86.26346694 -36.30224609 86.03515625 C-35.52494141 85.8959375 -34.74763672 85.75671875 -33.94677734 85.61328125 C-30.28596818 85.86936329 -29.02723935 87.15502435 -26.48974609 89.78515625 C-24.85712862 92.54120674 -23.57373803 95.41058423 -22.30224609 98.34765625 C-21.62322037 99.87066876 -20.94230253 101.39283943 -20.25927734 102.9140625 C-19.81998901 103.9206189 -19.81998901 103.9206189 -19.37182617 104.94750977 C-18.41815342 107.04423004 -18.41815342 107.04423004 -16.48974609 109.78515625 C-14.55898131 110.19943971 -14.55898131 110.19943971 -12.35693359 110.078125 C-11.55126953 110.06845703 -10.74560547 110.05878906 -9.91552734 110.04882812 C-9.07376953 110.02369141 -8.23201172 109.99855469 -7.36474609 109.97265625 C-6.51525391 109.95912109 -5.66576172 109.94558594 -4.79052734 109.93164062 C-2.68999772 109.89623844 -0.58979316 109.84243026 1.51025391 109.78515625 C1.92537231 108.96108276 1.92537231 108.96108276 2.34887695 108.12036133 C3.62182649 105.60757748 4.90961101 103.10268308 6.19775391 100.59765625 C6.6328125 99.73333984 7.06787109 98.86902344 7.51611328 97.97851562 C10.00075842 93.17486836 12.22678991 89.16021842 16.51025391 85.78515625 C20.05386633 85.78515625 22.37616982 86.12665581 25.44775391 87.91015625 C27.11068299 90.84473698 27.03809656 93.54369402 26.51025391 96.78515625 C25.1142828 100.41026555 23.33517371 103.79723245 21.51025391 107.22265625 C21.03330078 108.14498047 20.55634766 109.06730469 20.06494141 110.01757812 C18.89252682 112.28033828 17.7075325 114.53548251 16.51025391 116.78515625 C17.11208496 117.46046387 17.11208496 117.46046387 17.72607422 118.14941406 C27.46559628 129.25754249 29.64405949 140.40992543 29.87353516 154.9375 C30.72862443 158.76179498 32.3745072 159.52511878 35.51025391 161.78515625 C36.21537109 162.84992188 36.92048828 163.9146875 37.64697266 165.01171875 C40.8214666 168.08660374 41.4015496 168.20710518 45.59228516 168.37109375 C47.50332325 168.33141822 49.41392122 168.26014883 51.32275391 168.16015625 C52.79131836 168.11955078 52.79131836 168.11955078 54.28955078 168.078125 C56.69872012 168.00761273 59.1033421 167.90914193 61.51025391 167.78515625 C61.66582764 167.17518799 61.82140137 166.56521973 61.98168945 165.93676758 C62.70265355 163.15212643 63.44988674 160.37518735 64.19775391 157.59765625 C64.44203125 156.63794922 64.68630859 155.67824219 64.93798828 154.68945312 C66.47567243 149.06425414 67.70501878 145.27174546 72.51025391 141.78515625 C76.13525391 141.72265625 76.13525391 141.72265625 79.51025391 142.78515625 C81.51704504 144.86288591 82.45513291 146.07622155 82.68115234 148.9831543 C81.84734848 155.34319584 80.51865695 161.42992436 78.76025391 167.59765625 C78.52048828 168.51224609 78.28072266 169.42683594 78.03369141 170.36914062 C76.51736078 175.74273499 75.07827201 179.24422398 70.51025391 182.78515625 C67.85107225 183.67155014 66.0296075 183.9650465 63.27978516 184.1015625 C62.47734375 184.14345703 61.67490234 184.18535156 60.84814453 184.22851562 C60.01476562 184.26783203 59.18138672 184.30714844 58.32275391 184.34765625 C57.0552832 184.41243164 57.0552832 184.41243164 55.76220703 184.47851562 C53.67840957 184.58447143 51.59435287 184.68530645 49.51025391 184.78515625 C49.81962891 186.04328125 50.12900391 187.30140625 50.44775391 188.59765625 C51.65077843 193.95580802 52.12176486 199.31563945 52.51025391 204.78515625 C53.65880859 204.70652344 54.80736328 204.62789062 55.99072266 204.546875 C69.08283611 204.1611063 69.08283611 204.1611063 74.56494141 208.67578125 C84.26332815 217.94551001 84.26332815 217.94551001 84.76025391 223.66015625 C84.47859086 227.18094435 84.12317403 228.43352813 81.51025391 230.78515625 C78.22451178 231.8565939 76.37091652 232.12489149 73.13525391 230.84765625 C70.51025391 228.78515625 70.51025391 228.78515625 68.77197266 226.80078125 C68.12873047 226.07375 67.48548828 225.34671875 66.82275391 224.59765625 C66.24138672 223.88222656 65.66001953 223.16679687 65.06103516 222.4296875 C61.61530213 219.88205126 61.61530213 219.88205126 52.51025391 220.78515625 C52.18025391 227.38515625 51.85025391 233.98515625 51.51025391 240.78515625 C56.83419593 240.95503116 56.83419593 240.95503116 62.15917969 241.08300781 C67.40042374 241.32062088 70.21113104 242.59589596 74.51025391 245.78515625 C78.70890145 245.78515625 80.20525594 243.9082502 83.51025391 241.34765625 C91.51025391 235.78515625 91.51025391 235.78515625 110.51025391 226.78515625 C110.51025391 189.16515625 110.51025391 151.54515625 110.51025391 112.78515625 C105.51364929 110.28685394 100.82206822 108.01445439 95.67822266 105.97265625 C94.38615256 105.45592393 93.09416374 104.93898834 91.80224609 104.421875 C91.13366577 104.15552246 90.46508545 103.88916992 89.77624512 103.61474609 C62.47277224 92.71708933 35.66336233 80.58660386 9.22119141 67.7421875 C8.2522998 67.27312988 7.2834082 66.80407227 6.28515625 66.32080078 C4.48766955 65.44751892 2.69347947 64.56740518 0.90332031 63.67919922 C0.1136084 63.29521973 -0.67610352 62.91124023 -1.48974609 62.515625 C-2.17037109 62.17942139 -2.85099609 61.84321777 -3.55224609 61.49682617 C-8.21012089 59.78592584 -11.25377803 61.42388649 -15.39599609 63.50390625 Z M-24.55224609 134.03515625 C-27.0458951 138.01270202 -27.37470221 142.17294232 -27.48974609 146.78515625 C-26.62994141 146.64078125 -25.77013672 146.49640625 -24.88427734 146.34765625 C-11.29441947 144.21358915 0.13732482 144.41686227 13.51025391 147.78515625 C12.64596408 140.51320051 11.00289489 134.86789865 5.51025391 129.78515625 C1.00037788 126.8341468 -3.9059824 125.01138043 -9.38037109 125.33984375 C-15.24956202 126.57889517 -20.75226685 129.32362129 -24.55224609 134.03515625 Z M1.51025391 161.78515625 C1.51025391 197.75515625 1.51025391 233.72515625 1.51025391 270.78515625 C9.25078067 269.33590004 9.25078067 269.33590004 15.26025391 265.91015625 C16.00533203 265.37132812 16.75041016 264.8325 17.51806641 264.27734375 C18.17548828 263.78492188 18.83291016 263.2925 19.51025391 262.78515625 C20.37650391 262.20765625 21.24275391 261.63015625 22.13525391 261.03515625 C31.1608419 252.4845992 35.50959624 241.95718475 35.98927307 229.63449097 C36.06063898 226.07753746 36.06486937 222.52449186 36.03173828 218.96704102 C36.01026345 216.22387588 36.03164146 213.48332094 36.05712891 210.74023438 C36.08037771 196.24653527 33.73753456 184.51775933 23.47509766 173.625 C17.00724649 167.52217747 10.25302722 163.53371091 1.51025391 161.78515625 Z M-38.39599609 173.52734375 C-47.15771733 182.78863681 -50.61479593 193.16239294 -50.72802734 205.6015625 C-50.73609909 206.45386948 -50.74417084 207.30617645 -50.75248718 208.18431091 C-50.76628782 209.98719271 -50.77702787 211.7901002 -50.78491211 213.59301758 C-50.79638973 215.41698999 -50.81677413 217.24092993 -50.84643555 219.06469727 C-51.10342464 234.89034382 -49.67677926 247.60828542 -38.48974609 259.78515625 C-31.79346173 265.6724281 -24.67133576 270.78515625 -15.48974609 270.78515625 C-15.48974609 234.81515625 -15.48974609 198.84515625 -15.48974609 161.78515625 C-23.64834877 161.78515625 -32.61383087 168.2428239 -38.39599609 173.52734375 Z M77.95166016 268.6796875 C61.22086928 288.88667682 56.23990481 311.9865972 57.51025391 337.78515625 C59.64680987 359.59045449 72.13362078 380.57356954 88.51025391 394.78515625 C103.3837436 406.45699557 121.34995479 414.97126744 140.51025391 415.78515625 C141.37263672 415.83671875 142.23501953 415.88828125 143.12353516 415.94140625 C167.0090354 416.71711938 188.90756547 407.50795775 206.95166016 392.1875 C224.63758818 375.58162865 233.9461153 353.41688934 235.75634766 329.5390625 C236.29455853 305.69948664 227.47790706 283.27353828 211.51025391 265.78515625 C210.85154297 265.05683594 210.19283203 264.32851563 209.51416016 263.578125 C195.15612042 248.46896044 173.35124737 238.30880738 152.49072266 237.546875 C123.15927698 236.98363817 97.82906645 246.19242328 77.95166016 268.6796875 Z M220.88525391 401.28515625 C220.43150391 401.78015625 219.97775391 402.27515625 219.51025391 402.78515625 C220.17025391 404.10515625 220.83025391 405.42515625 221.51025391 406.78515625 C222.50025391 406.78515625 223.49025391 406.78515625 224.51025391 406.78515625 C226.21557714 404.84506103 226.21557714 404.84506103 227.51025391 402.78515625 C226.13539858 401.24348983 226.13539858 401.24348983 224.51025391 399.78515625 C222.3866091 399.55906288 222.3866091 399.55906288 220.88525391 401.28515625 Z M235.51025391 419.78515625 C235.18025391 420.11515625 234.85025391 420.44515625 234.51025391 420.78515625 C233.78193476 424.56745001 233.5471418 428.2943677 235.69194031 431.61427307 C236.50438957 432.48692055 236.50438957 432.48692055 237.33325195 433.37719727 C237.97217377 434.06741974 238.61109558 434.75764221 239.26937866 435.46878052 C243.75342306 440.10390318 248.27719608 444.69498369 252.84228516 449.25 C253.9262271 450.33461692 255.01002068 451.41938213 256.09367371 452.50428772 C258.34867251 454.76075062 260.6054446 457.01542026 262.86352539 459.26879883 C265.75990798 462.15944357 268.65172211 465.0546108 271.54225636 467.95110226 C273.77173221 470.18418362 276.00357418 472.41488787 278.23615074 474.64486885 C279.30423084 475.71228177 280.37156834 476.78043829 281.43815041 477.84934807 C282.92177845 479.33550688 284.40855838 480.81843779 285.89624023 482.30053711 C286.74116531 483.1446666 287.58609039 483.98879608 288.45661926 484.85850525 C291.71263249 487.91318743 294.02162128 488.06856652 298.47509766 488.00390625 C301.44800147 487.68436189 303.22023549 486.67105377 305.51025391 484.78515625 C307.77158121 481.87773543 308.12182286 478.54624052 308.00334167 474.89759827 C307.40042741 472.3146475 306.47193321 471.18614145 304.68334961 469.23608398 C303.72581284 468.19144485 303.72581284 468.19144485 302.74893188 467.1257019 C298.28740719 462.46116223 293.74710482 457.87911352 289.17822266 453.3203125 C288.09428071 452.23569558 287.01048713 451.15093037 285.92683411 450.06602478 C283.67183531 447.80956188 281.41506321 445.55489224 279.15698242 443.30151367 C276.26059983 440.41086893 273.36878571 437.5157017 270.47825146 434.61921024 C268.2487756 432.38612888 266.01693363 430.15542463 263.78435707 427.92544365 C262.71627698 426.85803073 261.64893948 425.78987421 260.58235741 424.72096443 C259.09872937 423.23480562 257.61194943 421.75187471 256.12426758 420.26977539 C255.2793425 419.4256459 254.43441742 418.58151642 253.56388855 417.71180725 C250.09623547 414.45857168 247.37809478 414.3996232 242.77197266 414.421875 C239.21459073 414.99326795 237.65565652 417.03635915 235.51025391 419.78515625 Z " fill="#000000" transform="translate(184.48974609375,4.21484375)"/>
<path d="M0 0 C2.78992269 2.56966564 3.84849333 4.20879851 4.5625 7.9375 C3.22652298 15.21115269 -3.61399349 19.25229805 -9.06640625 23.6171875 C-16.99538124 29.4782366 -16.99538124 29.4782366 -23 37 C-22.44570313 37.23460937 -21.89140625 37.46921875 -21.3203125 37.7109375 C-18.41582275 39.32454292 -16.29379995 41.34723795 -13.875 43.625 C-9.42501046 47.7584131 -4.84883239 51.56167804 0.00390625 55.2109375 C2.08279583 57.0742084 3.06213062 58.38626567 4 61 C3.86339823 64.82484946 3.50903182 67.23645227 1.375 70.4375 C-1.93962108 72.61817176 -4.0846934 72.36537326 -8 72 C-10.73828125 70.34765625 -10.73828125 70.34765625 -13.3125 68.0625 C-14.25738281 67.23878906 -15.20226562 66.41507812 -16.17578125 65.56640625 C-17.10777344 64.71949219 -18.03976562 63.87257813 -19 63 C-19.83917969 62.24589844 -20.67835938 61.49179687 -21.54296875 60.71484375 C-23.1827979 59.23665117 -24.81821929 57.75355433 -26.44921875 56.265625 C-30.01717628 53.09653562 -33.72691721 50.1159006 -37.45703125 47.140625 C-44.67547945 41.06426614 -44.67547945 41.06426614 -45.62890625 37.9375 C-45.60699219 37.298125 -45.58507812 36.65875 -45.5625 36 C-45.56378906 35.360625 -45.56507813 34.72125 -45.56640625 34.0625 C-44.18758721 29.04169688 -39.87411757 25.90265782 -35.9375 22.8125 C-31.97560299 19.640875 -28.16628778 16.38027281 -24.4375 12.9375 C-7.89205609 -2.25487317 -7.89205609 -2.25487317 0 0 Z " fill="#000000" transform="translate(304,295)"/>
<path d="M0 0 C2.08771132 1.61703781 3.8423206 3.14738036 5.6875 5 C6.74111665 6.01289082 7.79715363 7.02326938 8.85546875 8.03125 C9.38188965 8.53527344 9.90831055 9.03929687 10.45068359 9.55859375 C12.70723991 11.65798052 15.09264841 13.57690582 17.5 15.5 C21.58698209 18.82439651 25.6522974 22.16490419 29.625 25.625 C30.14642578 26.05619141 30.66785156 26.48738281 31.20507812 26.93164062 C33.92582659 29.34644147 35.00150565 31.00518357 36.0234375 34.5234375 C35.99663529 38.49909864 35.47314964 39.93308792 33 43 C30.72265625 45.0703125 30.72265625 45.0703125 28.0625 47.125 C23.85798271 50.45866081 19.85713584 53.89969194 15.9375 57.5625 C0.74675212 71.69480532 0.74675212 71.69480532 -4.8125 72.3125 C-8.91448247 71.91034486 -10.36270753 71.18026445 -13 68 C-14.38710545 64.65254654 -14.28348916 62.38237144 -13 59 C-9.1029791 54.47054139 -4.636514 50.74896722 0 47 C1.08097213 46.11357746 2.16171419 45.22687425 3.2421875 44.33984375 C5.10053586 42.82408216 6.97026 41.32206498 8.85546875 39.83984375 C11.19485326 38.00055866 11.19485326 38.00055866 13 35 C12.33355469 34.46632813 11.66710937 33.93265625 10.98046875 33.3828125 C4.09267917 27.8147812 -2.53952767 22.06258262 -9 16 C-10.13115234 14.98873047 -10.13115234 14.98873047 -11.28515625 13.95703125 C-13.70404843 11.19651876 -13.5720546 9.43308586 -13.39453125 5.90234375 C-12.78611893 2.96871205 -11.38853486 1.70609633 -9 0 C-5.36389722 -1.21203426 -3.68505654 -1.0178208 0 0 Z " fill="#000000" transform="translate(367,295)"/>
<path d="M0 0 C3.4375 0.5625 3.4375 0.5625 5.8125 2.125 C8.48032509 6.12673763 8.6643217 10.10806379 7.93255615 14.80032349 C7.4897934 16.45981522 7.4897934 16.45981522 7.03808594 18.15283203 C6.7073407 19.41749298 6.37659546 20.68215393 6.03582764 21.98513794 C5.66502362 23.34700272 5.29369331 24.70872429 4.921875 26.0703125 C4.54554566 27.48297469 4.17017457 28.89589246 3.79571533 30.30905151 C3.01031486 33.26156284 2.21592826 36.21145401 1.41455078 39.15966797 C0.39021061 42.92959819 -0.61535457 46.70421877 -1.61471939 50.48083687 C-2.38760235 53.39589897 -3.16842491 56.30878627 -3.95183563 59.221035 C-4.32537317 60.61190719 -4.6969252 62.00331424 -5.06641388 63.39526749 C-5.58502089 65.34257991 -6.11503873 67.28684246 -6.64550781 69.23095703 C-6.94386536 70.33569366 -7.2422229 71.4404303 -7.54962158 72.5786438 C-8.57597752 75.60220365 -9.6940598 77.97502826 -11.5625 80.5625 C-15.72435424 82.44711324 -17.61380188 82.91386967 -21.9375 81.3125 C-24.5625 79.5625 -24.5625 79.5625 -25.5625 77.5625 C-26.19227286 69.31209645 -24.16631644 61.9924849 -22.01953125 54.078125 C-21.64987493 52.69062124 -21.28071768 51.30298444 -20.91203308 49.91522217 C-20.14035005 47.02192391 -19.36005187 44.13111836 -18.57397461 41.24169922 C-17.57059744 37.54929162 -16.59325961 33.85054484 -15.62273121 30.14938736 C-14.86849217 27.2876119 -14.09850701 24.43025044 -13.32398033 21.57390594 C-12.95707678 20.21185014 -12.59549028 18.84834988 -12.23948097 17.48340607 C-11.73956806 15.57474762 -11.2155721 13.67244677 -10.69067383 11.77050781 C-10.39977371 10.68956848 -10.1088736 9.60862915 -9.80915833 8.49493408 C-7.73853108 3.62433097 -5.28131693 0.83389215 0 0 Z " fill="#000000" transform="translate(339.5625,289.4375)"/>
</svg>
