<?xml version="1.0" encoding="UTF-8"?>
<svg version="1.1" xmlns="http://www.w3.org/2000/svg" width="510" height="396">
<path d="M0 0 C1.06207992 -0.00445668 1.06207992 -0.00445668 2.14561599 -0.0090034 C4.50610134 -0.01763988 6.86653567 -0.01919431 9.22703552 -0.02069092 C10.92422086 -0.02532245 12.62140516 -0.03034756 14.31858826 -0.03573608 C18.91966122 -0.04882448 23.52071963 -0.05529735 28.12180829 -0.05974674 C30.99668336 -0.06268148 33.87155447 -0.06678691 36.74642754 -0.07125092 C45.74270438 -0.08491261 54.73897215 -0.09458739 63.73525864 -0.09845281 C74.11878878 -0.10293912 84.50218765 -0.12051911 94.88567787 -0.1494534 C102.91553727 -0.17105297 110.94535966 -0.18115606 118.9752478 -0.18249393 C123.77028865 -0.18354262 128.56520588 -0.18946483 133.36021614 -0.20731354 C137.86725722 -0.22376578 142.3740813 -0.22596364 146.88114166 -0.21717453 C148.5351488 -0.21640279 150.18916749 -0.22076485 151.84314537 -0.23063278 C154.10093073 -0.24331377 156.3579429 -0.2374972 158.61572266 -0.22705078 C160.51076208 -0.22925062 160.51076208 -0.22925062 162.44408512 -0.2314949 C168.88301666 0.49416243 172.09344166 4.33039653 175.99436951 9.14044189 C176.47398132 9.71931152 176.95359314 10.29818115 177.44773865 10.89459229 C178.8880383 12.63675544 180.31779095 14.38703424 181.74436951 16.14044189 C182.50104919 17.06727783 183.25772888 17.99411377 184.03733826 18.94903564 C185.4799995 20.71754387 186.92138409 22.48709423 188.36155701 24.25762939 C191.59457339 28.16904921 194.90379405 32.01305254 198.23240662 35.84332275 C198.70170593 36.38609863 199.17100525 36.92887451 199.65452576 37.48809814 C200.13354434 38.01832518 200.61256292 38.54855221 201.10609722 39.09484673 C202.74436951 41.14044189 202.74436951 41.14044189 204.07758045 43.64370918 C206.27240157 47.32221005 208.39491088 50.44496045 212.68187308 51.71397734 C218.80390106 52.66380098 225.00809534 52.41024421 231.18260193 52.30401611 C233.28089439 52.30450976 235.37918983 52.30946207 237.47746277 52.31852722 C241.98892825 52.32844534 246.49874801 52.30686993 251.00998497 52.26067734 C258.15127591 52.18770477 265.29156826 52.18468001 272.4331665 52.19076538 C283.73668144 52.19205009 295.03943221 52.14591264 306.34273559 52.07984746 C326.56316205 51.96272641 346.78375427 51.91641941 367.0044964 51.90175831 C374.09455502 51.8946223 381.18399671 51.86379558 388.27387369 51.81313777 C392.69724272 51.78490282 397.1205596 51.7728773 401.54400635 51.76454353 C403.5849264 51.75713457 405.62583576 51.74281831 407.66665077 51.7208271 C423.44051298 51.55552037 436.10823263 52.62521138 448.74436951 63.14044189 C449.39147888 63.67540283 450.03858826 64.21036377 450.70530701 64.76153564 C457.07840108 70.56411256 461.89960319 78.19175362 462.49662304 86.90136814 C462.52790644 88.99324128 462.527142 91.08576361 462.49954224 93.1776886 C462.5125238 94.92079643 462.5125238 94.92079643 462.52576762 96.69911855 C462.5435037 99.89349573 462.53467113 103.08646525 462.51405847 106.28078234 C462.49833062 109.73758616 462.51738558 113.19423106 462.53186035 116.65101624 C462.55461621 123.41016087 462.54525351 130.16889041 462.52435949 136.9280265 C462.50803784 142.42351357 462.50388511 147.91888778 462.50832558 153.41439629 C462.50895625 154.19822126 462.50958693 154.98204623 462.51023671 155.78962348 C462.51158284 157.38221732 462.51296242 158.97481113 462.51437507 160.56740492 C462.52629514 175.48029362 462.50228829 190.39295539 462.46535698 205.30579244 C462.43446046 218.08807686 462.43209788 230.87010029 462.45115662 243.65240479 C462.47329252 258.51550657 462.47939183 273.37846224 462.45883399 288.24157137 C462.45667117 289.82781532 462.45452207 291.41405928 462.45238686 293.00030327 C462.45132049 293.7806586 462.45025413 294.56101393 462.44915545 295.36501639 C462.44269917 300.85127705 462.44743724 306.33746222 462.45641136 311.82371712 C462.46697101 318.51336334 462.45936944 325.20270401 462.42895558 331.892294 C462.41387673 335.30228894 462.40659766 338.71180254 462.42114639 342.12181091 C462.43259421 345.82509859 462.41315784 349.52700127 462.38601685 353.23017883 C462.39648833 354.29857642 462.40695982 355.366974 462.41774863 356.46774727 C462.26995609 367.31682582 457.69296904 375.06007528 450.31858826 382.81231689 C437.18900116 394.68672344 421.73415521 395.5931989 404.93734741 395.52139282 C403.16101293 395.52485523 401.38468061 395.5296237 399.60835272 395.53557456 C394.75815564 395.54803392 389.90813691 395.54193735 385.05793941 395.5326159 C379.81520531 395.52580496 374.57250105 395.53631672 369.32977295 395.54455566 C359.07179051 395.55787312 348.81387405 395.55502419 338.55588906 395.54631774 C330.21724211 395.53953415 321.8786136 395.5386274 313.53996468 395.54188919 C311.75769574 395.54257874 311.75769574 395.54257874 309.93942137 395.54328222 C307.52544009 395.54424142 305.1114588 395.54521406 302.69747753 395.54619999 C280.07896092 395.55474797 257.46048083 395.54492885 234.84197021 395.52879889 C215.44507917 395.51539453 196.048242 395.51772595 176.65135193 395.53155518 C154.11052154 395.54761845 131.56972312 395.55392587 109.02888781 395.54471838 C106.62424473 395.54376276 104.21960166 395.54281965 101.81495857 395.54188919 C100.63191454 395.54142636 99.44887051 395.54096354 98.22997667 395.54048669 C89.90331949 395.53789918 81.57668264 395.54226261 73.25002861 395.54932785 C63.09989465 395.55775127 52.94983026 395.5554449 42.79970425 395.53948562 C37.62353225 395.53161455 32.44747616 395.52849152 27.27130508 395.53843307 C22.52848096 395.54740442 17.78587968 395.542407 13.04307563 395.52650042 C11.33195873 395.52316296 9.62082282 395.52482325 7.90971827 395.53212778 C-9.44123533 395.60048708 -24.02490888 392.89070619 -36.99391174 380.59356689 C-46.59520421 370.17972982 -48.71152732 358.58537491 -48.64331055 344.83224487 C-48.64869608 343.52134711 -48.65408162 342.21044934 -48.65963036 340.8598274 C-48.6740142 337.2456107 -48.66986256 333.63162342 -48.66246355 330.01739454 C-48.65771656 326.10998903 -48.67025522 322.20263206 -48.68048096 318.29524231 C-48.69764452 310.64973869 -48.69851403 303.00431735 -48.69326805 295.35879947 C-48.68922048 289.14202703 -48.69067688 282.92527883 -48.69601631 276.70850754 C-48.69676473 275.82243615 -48.69751316 274.93636477 -48.69828426 274.02344274 C-48.69981579 272.22316985 -48.70135414 270.42289696 -48.70289923 268.62262408 C-48.71661548 251.75401802 -48.71119277 234.88545838 -48.69971401 218.01685338 C-48.68978304 202.59965086 -48.70272151 187.18256839 -48.7266482 171.76538439 C-48.75105685 155.91770347 -48.7606427 140.07007842 -48.75399548 124.22237909 C-48.75050712 115.33203094 -48.75270995 106.44177508 -48.77024651 97.55144119 C-48.7849906 89.98318185 -48.78557517 82.4150798 -48.76817559 74.84682347 C-48.75968124 70.98906123 -48.75747738 67.13157969 -48.77282715 63.27383232 C-48.78929437 59.08319763 -48.77448609 54.89323606 -48.75683594 50.7026062 C-48.76644094 49.49538709 -48.77604595 48.28816798 -48.78594202 47.04436648 C-48.66352308 32.87572859 -43.98006782 21.87808339 -33.97047424 11.85137939 C-24.23988262 3.40237789 -12.71189212 0.02992205 0 0 Z " fill="#AFAFAF" transform="translate(48.25563049316406,-0.14044189453125)"/>
</svg>
