<?xml version="1.0" encoding="UTF-8"?>
<svg version="1.1" xmlns="http://www.w3.org/2000/svg" width="512" height="512">
<path d="M0 0 C0.99778473 -0.0071553 1.99556946 -0.01431061 3.02359009 -0.02168274 C4.10727875 -0.02437164 5.19096741 -0.02706055 6.30749512 -0.02983093 C7.45777191 -0.03640213 8.60804871 -0.04297333 9.79318237 -0.04974365 C13.59938628 -0.06944998 17.40555073 -0.08113509 21.21179199 -0.09111023 C23.16643623 -0.09722352 23.16643623 -0.09722352 25.16056824 -0.10346031 C31.35049378 -0.1225001 37.54040753 -0.13673015 43.73035669 -0.14507228 C50.84476129 -0.1548216 57.95885284 -0.18108534 65.0731473 -0.22157317 C70.5910302 -0.25188323 76.10882418 -0.26655539 81.62678862 -0.26985329 C84.91314157 -0.27218809 88.19908633 -0.28296134 91.48536682 -0.30631447 C95.16330427 -0.3308206 98.84043749 -0.32971913 102.51843262 -0.32279968 C103.58592743 -0.33560974 104.65342224 -0.3484198 105.75326538 -0.36161804 C121.75508614 -0.25271968 135.85330654 6.08479769 147.16491699 17.19013977 C156.70347811 27.06196812 160.93033608 39.97698063 165.24304199 52.70967102 C165.5099585 53.49607971 165.776875 54.2824884 166.05187988 55.09272766 C167.08281064 58.21333709 167.93054199 60.83852101 167.93054199 64.14717102 C168.88917145 64.13828857 169.8478009 64.12940613 170.83547974 64.12025452 C179.9256283 64.03872151 189.01570145 63.97899293 198.10613441 63.93992233 C202.77822892 63.91915957 207.45002527 63.89105211 212.12194824 63.84541321 C216.64128878 63.8015475 221.16034484 63.77794917 225.67988205 63.76766205 C227.39324794 63.76034299 229.1066005 63.7460535 230.81984329 63.72425079 C249.85525707 63.49191983 264.45791309 67.533353 278.67663574 80.86201477 C290.14170957 92.48604976 295.4201267 106.90557894 295.31822205 123.10124207 C295.32630035 124.66966565 295.32630035 124.66966565 295.33454186 126.26977456 C295.34875033 129.74318964 295.3417352 133.21621978 295.33459473 136.68965149 C295.34030201 139.19231979 295.34726765 141.69498548 295.35539246 144.19764709 C295.37144284 150.27189585 295.37343246 156.34599564 295.36817955 162.420251 C295.36412576 167.36124919 295.36559571 172.3022169 295.37092781 177.24321365 C295.37167623 177.94846234 295.37242465 178.65371103 295.37319576 179.3803309 C295.37472735 180.81339152 295.3762657 182.24645214 295.37781072 183.67951275 C295.39151505 197.09592918 295.38611272 210.51228718 295.37462551 223.92870225 C295.36469592 236.17981287 295.37763269 248.4307724 295.4015597 260.68185972 C295.42599219 273.28757475 295.43554836 285.89321953 295.42890698 298.49895775 C295.42542387 305.56559718 295.42758642 312.6321205 295.445158 319.69874191 C295.46148216 326.34564817 295.45663398 332.99231385 295.43785286 339.63922882 C295.43417627 342.07196372 295.43724812 344.50472009 295.44773865 346.93743515 C295.54118423 370.4075847 295.54118423 370.4075847 290.93054199 381.14717102 C290.39457728 382.4888651 290.39457728 382.4888651 289.847785 383.85766411 C284.81340364 395.94338423 273.36680948 406.36811787 261.59069824 411.64326477 C254.34383675 414.52081495 248.17674844 416.26930445 240.35733891 416.2813921 C239.70742854 416.28374433 239.05751817 416.28609656 238.38791355 416.28852007 C236.20704289 416.29518456 234.02623215 416.29475262 231.84535217 416.29434204 C230.26709034 416.29764227 228.68882934 416.30136817 227.11056942 416.30548352 C222.77068913 416.31549379 218.43082268 416.31921876 214.09093249 416.32187283 C209.41108465 416.32577882 204.73124772 416.33535702 200.05140686 416.34408569 C188.74743085 416.36384274 177.44345396 416.37391578 166.139465 416.38281348 C160.8141109 416.38719801 155.48875779 416.39256443 150.16340446 416.39780235 C132.45664075 416.41481459 114.74987766 416.42930796 97.04310703 416.43655109 C92.44870058 416.43846094 87.85429413 416.44038128 83.2598877 416.44233704 C82.11799148 416.44282078 80.97609526 416.44330452 79.79959612 416.44380292 C61.30860872 416.45210022 42.81768606 416.47743211 24.32672692 416.50991771 C5.33551132 416.54300969 -13.65567139 416.56100183 -32.64691597 416.56419533 C-43.30692788 416.56635855 -53.96684538 416.57507952 -64.62682915 416.60065651 C-73.7069857 416.62239278 -82.78702492 416.63039955 -91.86720454 416.62068973 C-96.49679961 416.6161534 -101.12615273 416.6179923 -105.75571442 416.63745117 C-110.00187201 416.65514367 -114.24761225 416.65403615 -118.49377466 416.63855388 C-120.02213309 416.63618699 -121.55052088 416.64045318 -123.07883459 416.65238253 C-141.34952694 416.78605251 -155.38139654 412.0255338 -168.81555176 399.43232727 C-180.27813732 387.81081505 -185.55909665 373.39249131 -185.45713806 357.1998291 C-185.4625236 356.15491895 -185.46790914 355.11000879 -185.47345787 354.03343469 C-185.48766631 350.5623535 -185.4806512 347.09165752 -185.47351074 343.62055969 C-185.47921806 341.11951391 -185.48618371 338.61847074 -185.49430847 336.11743164 C-185.51035924 330.04685787 -185.5123483 323.97643314 -185.50709557 317.90585276 C-185.50304149 312.96724683 -185.50451207 308.02867139 -185.50984383 303.09006691 C-185.51059225 302.38510694 -185.51134067 301.68014697 -185.51211177 300.95382458 C-185.51364338 299.52132969 -185.51518172 298.0888348 -185.51672674 296.65633992 C-185.5304315 283.24466212 -185.52502866 269.83304276 -185.51354153 256.42136631 C-185.5036142 244.17739773 -185.51654472 231.93358038 -185.54047572 219.68963512 C-185.56491543 207.08956531 -185.57446247 194.4895658 -185.56782299 181.88947278 C-185.56434119 174.82671384 -185.56649362 167.76407108 -185.58407402 160.70133018 C-185.6004093 154.05688317 -185.59553882 147.41267667 -185.57676888 140.7682209 C-185.57309495 138.3375186 -185.5761563 135.90679477 -185.58665466 133.47611237 C-185.67113133 112.29053035 -183.37066998 96.41987461 -168.35461426 80.40107727 C-155.79984499 68.01799716 -141.0053891 63.74802306 -123.77839661 63.80728149 C-122.09025782 63.82259437 -120.40212205 63.83824224 -118.71398926 63.85420227 C-116.95851507 63.85980851 -115.20303613 63.86407374 -113.44755554 63.86706543 C-108.86248454 63.87843336 -104.27770581 63.90782968 -99.69274902 63.94117737 C-94.99999951 63.9720534 -90.30720204 63.98560797 -85.61437988 64.00068665 C-76.43261196 64.03270836 -67.25105944 64.08380537 -58.06945801 64.14717102 C-57.94266663 63.5539505 -57.81587524 62.96072998 -57.6852417 62.34953308 C-52.96793798 40.6381662 -44.8313998 20.97537419 -26.04602051 7.90498352 C-18.08051075 3.20094232 -9.2912517 0.04598647 0 0 Z M-8.75695801 36.70967102 C-9.4414502 37.14408508 -10.12594238 37.57849915 -10.83117676 38.02607727 C-19.45991717 46.20305117 -22.20216389 57.42175702 -25.75695801 68.39717102 C-26.60819411 70.99743318 -27.46335769 73.59626564 -28.32527161 76.19300842 C-28.85745861 77.79904531 -29.38320115 79.40723701 -29.90141296 81.01783752 C-33.04809266 90.57986747 -33.04809266 90.57986747 -37.14561462 93.75695801 C-40.94429553 95.56313396 -44.36154901 95.5719338 -48.48059082 95.54780579 C-49.73284203 95.55827438 -49.73284203 95.55827438 -51.01039124 95.56895447 C-53.76455828 95.58891438 -56.51835008 95.58843101 -59.27258301 95.58857727 C-61.19444788 95.60035472 -63.11630362 95.61371984 -65.03814697 95.62860107 C-70.09811703 95.66478877 -75.15800624 95.68498379 -80.21807861 95.70014954 C-88.3023075 95.72496877 -96.38635744 95.76487885 -104.47042084 95.82205009 C-107.28482819 95.83828733 -110.09906492 95.84214908 -112.91351318 95.84506226 C-114.65592738 95.85484792 -116.39833898 95.86511271 -118.14074707 95.87593079 C-118.91404861 95.87337784 -119.68735016 95.87082489 -120.48408508 95.86819458 C-130.06882586 95.95697188 -138.44216979 97.85605846 -145.57336426 104.56123352 C-152.9139508 112.75639581 -153.22139817 122.40890872 -153.20317078 132.8052063 C-153.20543633 133.75968287 -153.20770189 134.71415944 -153.2100361 135.69755954 C-153.21635101 138.8862608 -153.21554835 142.07491929 -153.21472168 145.2636261 C-153.21771473 147.55382339 -153.22111759 149.84402018 -153.22489929 152.13421631 C-153.23372849 158.34915376 -153.23607695 164.56407743 -153.23671508 170.77902055 C-153.23742618 174.66352052 -153.23956163 178.548017 -153.2422123 182.4325161 C-153.25098483 195.28948693 -153.25563245 208.14644664 -153.25488182 221.00342003 C-153.25484187 221.69579194 -153.25480191 222.38816385 -153.25476074 223.10151672 C-153.25471986 223.79473897 -153.25467898 224.48796121 -153.25463686 225.20219018 C-153.25423051 236.4338269 -153.26379861 247.66543008 -153.27789911 258.89705709 C-153.29228024 270.44379739 -153.29898541 281.99051701 -153.29830533 293.53726691 C-153.29805056 300.014187 -153.30089033 306.49106912 -153.31148338 312.96798134 C-153.32117627 319.06074811 -153.32123531 325.15344069 -153.31396675 331.2462101 C-153.31292241 333.47863371 -153.31527485 335.71106198 -153.32132721 337.94347763 C-153.32907133 340.99846668 -153.32438626 344.05320106 -153.31669617 347.10818481 C-153.32183973 347.98476346 -153.32698329 348.86134211 -153.33228272 349.76448375 C-153.27592912 359.94397477 -151.84648119 369.01905803 -144.65539551 376.64717102 C-137.70076245 382.89518361 -129.69427716 384.27002004 -120.67158794 384.27580547 C-118.76005996 384.28064214 -118.76005996 384.28064214 -116.80991524 384.28557652 C-115.40315852 384.28410551 -113.9964019 384.28253781 -112.58964539 384.28088379 C-111.08945337 384.28275258 -109.58926185 384.28505355 -108.08907109 384.28774911 C-103.96982428 384.29386512 -99.85059776 384.29373375 -95.73134744 384.29255474 C-91.28747328 384.29235068 -86.84360563 384.29786995 -82.3997345 384.3026123 C-73.69458148 384.3109183 -64.98943524 384.31366712 -56.28427859 384.31422468 C-49.208315 384.31469986 -42.13235365 384.3167547 -35.05639076 384.31992531 C-14.99456915 384.32873169 5.06724712 384.3333447 25.12907068 384.33259483 C26.75133487 384.3325349 26.75133487 384.3325349 28.40637207 384.33247375 C29.48920204 384.33243287 30.57203202 384.33239199 31.68767502 384.33234987 C49.23784203 384.33194339 66.78798759 384.3415135 84.33814839 384.35561212 C102.35869108 384.36997439 120.37922331 384.37688239 138.39977187 384.37601835 C148.51687284 384.37568633 158.63395132 384.37843553 168.75104713 384.3891964 C177.364679 384.39829942 185.97827819 384.40047826 194.59191278 384.39368697 C198.9858955 384.3904208 203.3798155 384.39036864 207.77379227 384.39904022 C211.79873206 384.40690176 215.82355936 384.40547732 219.8484964 384.39675609 C221.30203469 384.39522034 222.75558136 384.39704008 224.20910976 384.40261617 C235.91996882 384.44455473 246.49761307 384.13605484 255.43444824 375.73310852 C262.77503479 367.53794623 263.08248216 357.88543333 263.06425476 347.48913574 C263.06652032 346.53465917 263.06878587 345.58018261 263.07112008 344.59678251 C263.077435 341.40808124 263.07663233 338.21942276 263.07580566 335.03071594 C263.07879871 332.74051865 263.08220158 330.45032186 263.08598328 328.16012573 C263.09481248 321.94518828 263.09716093 315.73026461 263.09779906 309.51532149 C263.09851016 305.63082152 263.10064561 301.74632505 263.10329628 297.86182594 C263.11206882 285.00485511 263.11671644 272.1478954 263.11596581 259.29092201 C263.11592585 258.5985501 263.11588589 257.90617819 263.11584473 257.19282532 C263.11580385 256.49960308 263.11576297 255.80638083 263.11572085 255.09215186 C263.11531449 243.86051514 263.1248826 232.62891197 263.13898309 221.39728495 C263.15336422 209.85054465 263.16006939 198.30382503 263.15938932 186.75707513 C263.15913455 180.28015504 263.16197431 173.80327292 263.17256737 167.3263607 C263.18226026 161.23359393 263.1823193 155.14090135 263.17505074 149.04813194 C263.17400639 146.81570833 263.17635883 144.58328007 263.18241119 142.35086441 C263.19015531 139.29587537 263.18547024 136.24114099 263.17778015 133.18615723 C263.1854955 131.87128925 263.1854955 131.87128925 263.19336671 130.52985829 C263.1370131 120.35036727 261.70756518 111.27528401 254.51647949 103.64717102 C246.88054948 96.78708416 238.15641507 95.99870508 228.35827637 96.00532532 C227.51847733 96.00185089 226.67867828 95.99837646 225.81343079 95.99479675 C223.99812983 95.98747118 222.1828201 95.98210885 220.36750793 95.97850609 C217.49208401 95.97130916 214.61682762 95.95562036 211.74145508 95.93716431 C203.56899243 95.88483317 195.39662582 95.83669705 187.22399902 95.82124329 C182.21780295 95.81115822 177.21203555 95.78182782 172.20600891 95.73992348 C170.30189761 95.72762387 168.39772577 95.72249032 166.49357605 95.72472191 C163.82952093 95.72707687 161.16669629 95.70489675 158.50280762 95.67720032 C157.32903313 95.68710243 157.32903313 95.68710243 156.13154602 95.69720459 C150.97411052 95.60931453 148.02742439 94.54295858 143.93054199 91.14717102 C142.4420166 88.70283508 142.4420166 88.70283508 141.39538574 85.91279602 C140.99174805 84.85125305 140.58811035 83.78971008 140.17224121 82.69599915 C137.62502209 75.41594072 135.16519792 68.10738237 132.80822754 60.76338196 C129.40149777 50.18951505 126.11551925 41.32135092 116.34851074 35.15498352 C109.40648731 32.26153918 102.30440864 31.85451879 94.87194824 31.88838196 C93.90973358 31.88487732 92.94751892 31.88137268 91.95614624 31.87776184 C88.80170296 31.86901898 85.64748723 31.8747673 82.49304199 31.88154602 C80.28544065 31.88019723 78.07783959 31.87825492 75.87023926 31.87574768 C71.25391804 31.8728065 66.63767446 31.8770617 62.0213623 31.88642883 C56.12036457 31.89782268 50.21954881 31.89125783 44.31855774 31.87928391 C39.7630884 31.87203816 35.20766182 31.8743657 30.65219116 31.87953949 C28.4769997 31.88086848 26.30180428 31.87925474 24.12661743 31.87458038 C21.0806864 31.86947045 18.03504532 31.87728795 14.98913574 31.88838196 C14.10055878 31.8843335 13.21198181 31.88028503 12.29647827 31.87611389 C4.98195126 31.92517704 -2.52880399 32.54570519 -8.75695801 36.70967102 Z " fill="#000000" transform="translate(201.0694580078125,47.85282897949219)"/>
<path d="M0 0 C3.26701612 2.66358727 6.39330111 5.45632415 9.50390625 8.30078125 C10.70273437 9.37585938 10.70273437 9.37585938 11.92578125 10.47265625 C23.25825114 21.16214912 31.2098136 34.17437024 37.50390625 48.30078125 C38.22707031 49.88246094 38.22707031 49.88246094 38.96484375 51.49609375 C50.85831091 79.68000685 49.73861746 113.35036059 38.81640625 141.55078125 C32.90108917 155.93572542 24.97072002 167.85461648 14.50390625 179.30078125 C13.7871875 180.1 13.07046875 180.89921875 12.33203125 181.72265625 C1.64759501 193.04976534 -11.36854673 201.02104767 -25.49609375 207.30078125 C-26.56214844 207.78289062 -27.62820313 208.265 -28.7265625 208.76171875 C-56.97676024 220.57739081 -90.47330584 219.55423479 -118.74609375 208.61328125 C-133.13109209 202.69851085 -145.05010841 194.76743095 -156.49609375 184.30078125 C-157.2953125 183.5840625 -158.09453125 182.86734375 -158.91796875 182.12890625 C-170.24507784 171.44447001 -178.21636017 158.42832827 -184.49609375 144.30078125 C-184.97820312 143.23472656 -185.4603125 142.16867187 -185.95703125 141.0703125 C-197.77270331 112.82011476 -196.74954729 79.32356916 -185.80859375 51.05078125 C-179.89382335 36.66578291 -171.96274345 24.74676659 -161.49609375 13.30078125 C-160.779375 12.5015625 -160.06265625 11.70234375 -159.32421875 10.87890625 C-148.63978251 -0.44820284 -135.62364077 -8.41948517 -121.49609375 -14.69921875 C-120.43003906 -15.18132812 -119.36398438 -15.6634375 -118.265625 -16.16015625 C-80.25411123 -32.05850802 -32.33712441 -25.48734406 0 0 Z M-132.49609375 31.30078125 C-133.24246094 31.94660156 -133.98882812 32.59242188 -134.7578125 33.2578125 C-150.01646946 47.49722715 -159.87910776 68.78609656 -160.875 89.53125 C-161.5695169 114.813876 -155.19245595 136.07711141 -138.49609375 155.30078125 C-137.85027344 156.04714844 -137.20445312 156.79351562 -136.5390625 157.5625 C-121.18087593 174.0200094 -98.38030074 183.32122021 -76.1171875 184.33203125 C-52.43371226 184.12764311 -31.08303683 176.28094382 -13.49609375 160.30078125 C-12.86445313 159.75035156 -12.2328125 159.19992187 -11.58203125 158.6328125 C3.43105648 144.75084782 12.8099604 123.37991114 13.91796875 103.17578125 C14.7574223 77.47558802 8.10511826 55.4069296 -9.49609375 36.30078125 C-10.04523438 35.67171875 -10.594375 35.04265625 -11.16015625 34.39453125 C-25.71641265 18.61927801 -48.3366348 9.47396637 -69.51953125 8.33203125 C-93.39028042 8.08141971 -114.5144575 15.68316431 -132.49609375 31.30078125 Z " fill="#000000" transform="translate(329.49609375,183.69921875)"/>
<path d="M0 0 C4.8846525 2.26787438 7.73212562 5.1153475 10 10 C10.75381535 15.5997712 10.77303575 20.33499991 8.375 25.5 C3.80134327 30.3143755 0.6912538 32.25156236 -6 32.5 C-12.6912538 32.25156236 -15.80134327 30.3143755 -20.375 25.5 C-22.77303575 20.33499991 -22.75381535 15.5997712 -22 10 C-17.52212837 0.3553534 -9.85292056 -1.32635469 0 0 Z " fill="#000000" transform="translate(422,176)"/>
</svg>
