<?xml version="1.0" encoding="UTF-8"?>
<svg version="1.1" xmlns="http://www.w3.org/2000/svg" width="512" height="512">
<path d="M0 0 C1.17433003 -0.00698988 1.17433003 -0.00698988 2.37238389 -0.01412097 C4.98765659 -0.02604252 7.60240704 -0.01668663 10.21768379 -0.00736332 C12.11487268 -0.01153748 14.01205908 -0.01701545 15.90924084 -0.02368313 C21.11663365 -0.03814566 26.32386829 -0.03389044 31.53126979 -0.02651632 C37.14965666 -0.02178896 42.7680091 -0.03429069 48.38638496 -0.04453373 C59.39101211 -0.06173561 70.3955822 -0.06255884 81.40021931 -0.05732083 C90.34445739 -0.05328043 99.2886786 -0.05472114 108.23291588 -0.06006908 C110.14195841 -0.06119172 110.14195841 -0.06119172 112.08956746 -0.06233703 C114.67499788 -0.0638685 117.2604283 -0.06540684 119.84585871 -0.066952 C137.20662471 -0.07678173 154.56737973 -0.08094349 171.92814636 -0.07332611 C172.60688177 -0.07302894 173.28561718 -0.07273176 173.98492032 -0.07242559 C179.49656768 -0.0699767 185.00821496 -0.06736509 190.51986223 -0.06474145 C212.01707632 -0.0546398 233.51421229 -0.06299339 255.01141548 -0.086236 C279.17058398 -0.11231451 303.32969144 -0.12510541 327.48887837 -0.11804825 C340.27816259 -0.11455378 353.06738267 -0.11680315 365.85665703 -0.13429928 C376.74406044 -0.14900878 387.63135454 -0.14967302 398.51875578 -0.13222837 C404.0733996 -0.1237057 409.62784804 -0.12159989 415.18248177 -0.13687992 C420.26900975 -0.15069901 425.35517446 -0.14599941 430.44168128 -0.12664068 C432.28009944 -0.12287186 434.1185465 -0.12582802 435.95693897 -0.13625234 C448.09803857 -0.2001919 459.6360641 0.47331333 468.85956001 9.38031673 C475.00324769 16.9440077 478.33215453 24.74022533 478.23987675 34.52075672 C478.24453667 35.30364341 478.24919658 36.08653009 478.25399771 36.89314061 C478.26591927 39.50841331 478.25656337 42.12316376 478.24724007 44.73844051 C478.25141423 46.6356294 478.25689219 48.5328158 478.26355988 50.42999756 C478.2780224 55.63739037 478.27376719 60.84462501 478.26639307 66.05202651 C478.26166571 71.67041338 478.27416744 77.28876582 478.28441048 82.90714169 C478.30161236 93.91176884 478.30243559 104.91633892 478.29719757 115.92097603 C478.29315718 124.86521411 478.29459788 133.80943532 478.29994583 142.7536726 C478.30069425 144.02636762 478.30144268 145.29906264 478.30221378 146.61032418 C478.30374524 149.1957546 478.30528359 151.78118502 478.30682874 154.36661543 C478.31665848 171.72738143 478.32082024 189.08813645 478.31320286 206.44890308 C478.3127571 207.46700619 478.3127571 207.46700619 478.31230233 208.50567705 C478.30985345 214.0173244 478.30724184 219.52897168 478.3046182 225.04061895 C478.29451654 246.53783304 478.30287014 268.03496901 478.32611275 289.5321722 C478.35219126 313.6913407 478.36498215 337.85044816 478.357925 362.00963509 C478.35443053 374.79891931 478.35667989 387.58813939 478.37417603 400.37741375 C478.38888553 411.26481716 478.38954977 422.15211126 478.37210511 433.0395125 C478.36358245 438.59415632 478.36147664 444.14860476 478.37675667 449.70323849 C478.39057576 454.78976647 478.38587615 459.87593118 478.36651743 464.962438 C478.3627486 466.80085616 478.36570477 468.63930322 478.37612908 470.47769569 C478.44006865 482.61879529 477.76656342 494.15682082 468.85956001 503.38031673 C461.29586905 509.52400441 453.49965142 512.85291125 443.71912003 512.76063347 C442.54479 512.76762335 442.54479 512.76762335 441.34673613 512.77475443 C438.73146344 512.78667599 436.11671299 512.7773201 433.50143623 512.76799679 C431.60424734 512.77217095 429.70706095 512.77764892 427.80987918 512.7843166 C422.60248638 512.79877913 417.39525173 512.79452391 412.18785024 512.78714979 C406.56946337 512.78242243 400.95111092 512.79492416 395.33273506 512.8051672 C384.32810791 512.82236908 373.32353783 512.82319231 362.31890072 512.81795429 C353.37466263 512.8139139 344.43044142 512.8153546 335.48620415 512.82070255 C333.57716161 512.82182519 333.57716161 512.82182519 331.62955257 512.8229705 C329.04412215 512.82450197 326.45869173 512.82604031 323.87326132 512.82758547 C306.51249532 512.8374152 289.15174029 512.84157696 271.79097366 512.83395958 C271.11223826 512.83366241 270.43350285 512.83336523 269.7341997 512.83305905 C264.22255235 512.83061017 258.71090507 512.82799856 253.1992578 512.82537492 C231.70204371 512.81527327 210.20490774 512.82362686 188.70770454 512.84686947 C164.54853604 512.87294798 140.38942859 512.88573888 116.23024166 512.87868172 C103.44095744 512.87518725 90.65173736 512.87743661 77.862463 512.89493275 C66.97505959 512.90964225 56.08776549 512.91030649 45.20036425 512.89286184 C39.64572042 512.88433917 34.09127198 512.88223336 28.53663826 512.89751339 C23.45011027 512.91133248 18.36394557 512.90663288 13.27743874 512.88727415 C11.43902059 512.88350532 9.60057352 512.88646149 7.76218106 512.8968858 C-4.37891855 512.96082537 -15.91694407 512.28732014 -25.14043999 503.38031673 C-31.28412767 495.81662577 -34.6130345 488.02040814 -34.52075672 478.23987675 C-34.52541664 477.45699006 -34.53007656 476.67410338 -34.53487769 475.86749285 C-34.54679924 473.25222016 -34.53744335 470.63746971 -34.52812004 468.02219296 C-34.5322942 466.12500406 -34.53777217 464.22781767 -34.54443985 462.33063591 C-34.55890238 457.1232431 -34.55464716 451.91600845 -34.54727304 446.70860696 C-34.54254568 441.09022009 -34.55504741 435.47186765 -34.56529045 429.85349178 C-34.58249233 418.84886463 -34.58331556 407.84429455 -34.57807755 396.83965744 C-34.57403715 387.89541936 -34.57547786 378.95119815 -34.58082581 370.00696087 C-34.58157423 368.73426585 -34.58232265 367.46157082 -34.58309375 366.15030929 C-34.58462522 363.56487887 -34.58616357 360.97944845 -34.58770872 358.39401804 C-34.59753845 341.03325204 -34.60170022 323.67249701 -34.59408283 306.31173038 C-34.59378566 305.63299498 -34.59348849 304.95425957 -34.59318231 304.25495642 C-34.59073342 298.74330907 -34.58812181 293.23166179 -34.58549817 287.72001452 C-34.57539652 266.22280043 -34.58375012 244.72566446 -34.60699272 223.22846127 C-34.63307123 199.06929277 -34.64586213 174.91018531 -34.63880497 150.75099838 C-34.6353105 137.96171416 -34.63755987 125.17249408 -34.655056 112.38321972 C-34.6697655 101.49581631 -34.67042975 90.60852221 -34.65298509 79.72112097 C-34.64446242 74.16647715 -34.64235661 68.6120287 -34.65763664 63.05739498 C-34.67145573 57.970867 -34.66675613 52.88470229 -34.64739741 47.79819547 C-34.64362858 45.95977731 -34.64658474 44.12133025 -34.65700906 42.28293778 C-34.72094863 30.14183818 -34.04744339 18.60381265 -25.14043999 9.38031673 C-17.57674902 3.23662905 -9.78053139 -0.09227778 0 0 Z M-16.01543999 21.31781673 C-19.65731031 26.56639455 -20.43408694 30.75406887 -20.39770889 37.06349564 C-20.40121497 37.83338974 -20.40472104 38.60328384 -20.40833336 39.39650807 C-20.41766365 41.98552761 -20.41271986 44.57432302 -20.40786552 47.16335201 C-20.41160096 49.03462698 -20.41620206 50.90590039 -20.42159617 52.77717131 C-20.43385472 57.92676199 -20.43356234 63.07628785 -20.43120742 68.2258898 C-20.43079997 73.77680094 -20.44183147 79.32769109 -20.45132256 84.87859249 C-20.46794911 95.75661415 -20.47343285 106.63461413 -20.47454731 117.51264743 C-20.47549699 126.35304339 -20.47960325 135.19343218 -20.48594856 144.03382587 C-20.50069779 165.00895822 -20.51299781 185.98408668 -20.51195145 206.9592247 C-20.51192029 207.63011143 -20.51188913 208.30099816 -20.51185703 208.99221479 C-20.51169081 212.39259033 -20.51149273 215.79296587 -20.51128761 219.19334141 C-20.51124772 219.86867474 -20.51120783 220.54400807 -20.51116673 221.23980605 C-20.51108586 222.60549487 -20.51100226 223.9711837 -20.51091595 225.33687252 C-20.50969042 246.58518663 -20.5247036 267.83343691 -20.55206108 289.08173275 C-20.58278061 312.95116024 -20.59996832 336.82054614 -20.59813464 360.68999881 C-20.59747008 373.32947989 -20.602991 385.968889 -20.62449074 398.60835361 C-20.64267743 409.36925335 -20.64707052 420.13004848 -20.63347189 430.89095692 C-20.62692962 436.38255359 -20.62687054 441.87394943 -20.64417839 447.36552715 C-20.65985834 452.39223502 -20.65709743 457.41858196 -20.63961013 462.44528075 C-20.63652903 464.26424031 -20.6402142 466.08322646 -20.65133028 467.90215466 C-20.66544281 470.37507808 -20.65487267 472.84673395 -20.63821793 475.31961441 C-20.64815429 476.02554189 -20.65809065 476.73146938 -20.66832811 477.4587886 C-20.58414653 483.37236317 -18.69248281 488.46031697 -14.79936685 492.91474758 C8.07186047 513.75197874 46.9195658 498.38031673 77.85956001 498.38031673 C77.85956001 430.07031673 77.85956001 361.76031673 77.85956001 291.38031673 C65.64956001 291.05031673 53.43956001 290.72031673 40.85956001 290.38031673 C40.13879559 286.77649464 39.73243782 284.09955784 39.72089481 280.53277016 C39.71542037 279.57881471 39.70994593 278.62485927 39.70430559 277.64199609 C39.70332748 276.6021133 39.70234938 275.56223052 39.70134163 274.49083614 C39.69640365 273.37992133 39.69146567 272.26900652 39.68637806 271.12442762 C39.67099666 267.39486548 39.66264065 263.66532057 39.65423775 259.93573666 C39.64465973 257.26507981 39.63469294 254.59442706 39.62423897 251.92377377 C39.60249417 246.17038025 39.58434239 240.4169844 39.56863403 234.66357136 C39.54591722 226.3451124 39.5177769 218.02667874 39.48831476 209.70824126 C39.44066106 196.21198137 39.39739086 182.71571113 39.35687447 169.21942806 C39.31750823 156.10939383 39.2760793 142.99936879 39.23187447 129.88934994 C39.22915019 129.08118775 39.22642592 128.27302557 39.2236191 127.44037362 C39.20993943 123.38604337 39.19621919 119.33171326 39.18247879 115.27738321 C39.06854892 81.6450467 38.96173185 48.012691 38.85956001 14.38031673 C32.73981583 14.28101984 26.62054649 14.20864577 20.50018501 14.16059017 C18.42067476 14.14054514 16.34122039 14.1133016 14.26190376 14.07855892 C11.26306514 14.02972726 8.26497539 14.00727646 5.26581001 13.98969173 C4.34465401 13.96904659 3.423498 13.94840145 2.47442818 13.9271307 C-4.95489572 13.92458094 -10.97034843 15.61682221 -16.01543999 21.31781673 Z M53.85956001 14.38031673 C53.85956001 101.17031673 53.85956001 187.96031673 53.85956001 277.38031673 C74.64956001 277.38031673 95.43956001 277.38031673 116.85956001 277.38031673 C116.85956001 190.59031673 116.85956001 103.80031673 116.85956001 14.38031673 C96.06956001 14.38031673 75.27956001 14.38031673 53.85956001 14.38031673 Z M130.85956001 14.38031673 C130.52956001 105.46031673 130.19956001 196.54031673 129.85956001 290.38031673 C117.64956001 290.71031673 105.43956001 291.04031673 92.85956001 291.38031673 C92.85956001 359.69031673 92.85956001 428.00031673 92.85956001 498.38031673 C132.78956001 498.38031673 172.71956001 498.38031673 213.85956001 498.38031673 C213.85956001 430.07031673 213.85956001 361.76031673 213.85956001 291.38031673 C201.31956001 291.05031673 188.77956001 290.72031673 175.85956001 290.38031673 C175.52956001 199.30031673 175.19956001 108.22031673 174.85956001 14.38031673 C160.33956001 14.38031673 145.81956001 14.38031673 130.85956001 14.38031673 Z M188.85956001 14.38031673 C188.85956001 101.17031673 188.85956001 187.96031673 188.85956001 277.38031673 C209.97956001 277.38031673 231.09956001 277.38031673 252.85956001 277.38031673 C252.85956001 190.59031673 252.85956001 103.80031673 252.85956001 14.38031673 C231.73956001 14.38031673 210.61956001 14.38031673 188.85956001 14.38031673 Z M266.85956001 14.38031673 C266.84925255 17.78129162 266.83894508 21.1822665 266.82832527 24.68630123 C266.73341512 55.85111761 266.63360956 87.01591481 266.52844307 118.18069826 C266.51467297 122.26261849 266.50094595 126.34453885 266.48724556 130.42645931 C266.48451726 131.2391196 266.48178895 132.05177989 266.47897797 132.88906624 C266.43486486 146.05934606 266.39424435 159.22963447 266.3549074 172.39992932 C266.31448711 185.9069952 266.2703302 199.41404511 266.22268146 212.92108744 C266.19338198 221.26022753 266.16702095 229.59936638 266.14438104 237.93852725 C266.12859161 243.65169719 266.1091831 249.36484757 266.0868916 255.07799581 C266.07412556 258.37752682 266.06352584 261.67704019 266.0561409 264.97658825 C266.04789549 268.54888638 266.03362315 272.12111002 266.0177784 275.69338131 C266.01680029 276.74298072 266.01582218 277.79258013 266.01481444 278.87398559 C266.00933999 279.82744233 266.00386555 280.78089907 265.99822521 281.76324844 C265.99556717 282.58838072 265.99290913 283.413513 265.99017054 284.26364928 C265.85956001 286.38031673 265.85956001 286.38031673 264.85956001 289.38031673 C253.81218727 294.9040031 240.20585994 291.02756531 227.85956001 291.38031673 C227.85956001 359.69031673 227.85956001 428.00031673 227.85956001 498.38031673 C267.45956001 498.38031673 307.05956001 498.38031673 347.85956001 498.38031673 C347.85956001 430.07031673 347.85956001 361.76031673 347.85956001 291.38031673 C335.97956001 291.05031673 324.09956001 290.72031673 311.85956001 290.38031673 C309.99951272 286.66022216 309.60859622 285.53142303 309.59784698 281.64020061 C309.59038149 280.68475282 309.582916 279.72930503 309.57522428 278.74490428 C309.57812638 277.17487442 309.57812638 277.17487442 309.58108711 275.57312679 C309.57529471 274.45898285 309.56950231 273.34483891 309.56353438 272.19693303 C309.54648118 268.45041472 309.54365327 264.7040192 309.54071236 260.95746517 C309.53141785 258.27709909 309.52133742 255.59674675 309.51027107 252.91638851 C309.48798919 247.13896615 309.4729815 241.36156153 309.46290398 235.58410549 C309.44832305 227.23086436 309.42278789 218.87768503 309.39457269 210.52448013 C309.34909402 196.97221025 309.31248366 183.41993148 309.28143501 169.86762142 C309.25125387 156.70224095 309.21690561 143.53688224 309.17694283 130.37152767 C309.17448128 129.56011577 309.17201973 128.74870387 309.16948359 127.91270372 C309.15710907 123.84211867 309.14465252 119.77153387 309.13215518 115.70094919 C309.02857129 81.92743389 308.93991945 48.15389512 308.85956001 14.38031673 C294.99956001 14.38031673 281.13956001 14.38031673 266.85956001 14.38031673 Z M323.85956001 14.38031673 C323.85956001 101.17031673 323.85956001 187.96031673 323.85956001 277.38031673 C344.97956001 277.38031673 366.09956001 277.38031673 387.85956001 277.38031673 C387.85956001 190.59031673 387.85956001 103.80031673 387.85956001 14.38031673 C366.73956001 14.38031673 345.61956001 14.38031673 323.85956001 14.38031673 Z M401.85956001 14.38031673 C401.85820348 14.95683729 401.85684695 15.53335785 401.85544932 16.12734872 C401.77485484 50.27256234 401.68392319 84.41773153 401.5795084 118.56288053 C401.56698905 122.65982193 401.55455635 126.75676358 401.5421772 130.85370541 C401.53971121 131.66935631 401.53724521 132.48500721 401.53470449 133.3253748 C401.49494636 146.54415025 401.46221256 159.76293428 401.4320602 172.98173473 C401.40098104 186.53853384 401.36238689 200.09529642 401.31676996 213.65205449 C401.28884463 222.02190811 401.26682919 230.39173492 401.25229751 238.76162269 C401.24178116 244.49583394 401.22398626 250.22999335 401.20039298 255.96416561 C401.18698424 259.27586755 401.17793263 262.58748227 401.17534637 265.89921284 C401.17204349 269.48471665 401.15661971 273.06996518 401.13803291 276.65541744 C401.13996765 277.7089078 401.14190238 278.76239816 401.14389575 279.84781247 C401.13643025 280.80475261 401.12896476 281.76169275 401.12127304 282.74763107 C401.11899472 283.57580111 401.1167164 284.40397115 401.11436903 285.25723726 C400.85956001 287.38031673 400.85956001 287.38031673 398.85956001 290.38031673 C386.97956001 290.71031673 375.09956001 291.04031673 362.85956001 291.38031673 C362.85956001 359.69031673 362.85956001 428.00031673 362.85956001 498.38031673 C411.51503083 503.39300365 411.51503083 503.39300365 456.85956001 494.38031673 C462.59874823 488.51636356 464.1632577 483.74976948 464.11682892 475.69713783 C464.12033499 474.92724373 464.12384107 474.15734963 464.12745339 473.3641254 C464.13678368 470.77510586 464.13183988 468.18631045 464.12698555 465.59728146 C464.13072099 463.72600649 464.13532208 461.85473308 464.1407162 459.98346215 C464.15297475 454.83387147 464.15268237 449.68434562 464.15032744 444.53474367 C464.14992 438.98383253 464.16095149 433.43294238 464.17044258 427.88204098 C464.18706913 417.00401932 464.19255287 406.12601934 464.19366734 395.24798604 C464.19461701 386.40759008 464.19872328 377.56720129 464.20506859 368.72680759 C464.21981781 347.75167525 464.23211784 326.77654679 464.23107147 305.80140877 C464.23104031 305.13052204 464.23100916 304.45963531 464.23097706 303.76841868 C464.23081084 300.36804313 464.23061276 296.9676676 464.23040764 293.56729206 C464.23036775 292.89195873 464.23032786 292.2166254 464.23028676 291.52082742 C464.23020589 290.15513859 464.23012229 288.78944977 464.23003598 287.42376094 C464.22881044 266.17544684 464.24382362 244.92719656 464.27118111 223.67890072 C464.30190063 199.80947323 464.31908834 175.94008733 464.31725466 152.07063466 C464.31659011 139.43115358 464.32211103 126.79174447 464.34361076 114.15227985 C464.36179746 103.39138011 464.36619054 92.63058498 464.35259192 81.86967655 C464.34604964 76.37807988 464.34599056 70.88668404 464.36329842 65.39510632 C464.37897837 60.36839845 464.37621745 55.34205151 464.35873015 50.31535272 C464.35564906 48.49639316 464.35933422 46.67740701 464.3704503 44.85847881 C464.38456283 42.38555539 464.37399269 39.91389952 464.35733795 37.44101906 C464.37224249 36.38212783 464.37224249 36.38212783 464.38744813 35.30184487 C464.30358161 29.41040199 462.45549248 24.20158768 458.4476861 19.84588588 C454.02953718 15.96365406 449.82782343 14.12172771 443.97747993 14.15326595 C443.03688225 14.15341702 442.09628456 14.15356808 441.12718391 14.15372372 C440.12492271 14.16404629 439.12266151 14.17436886 438.09002876 14.18500423 C437.05388939 14.18783413 436.01775002 14.19066402 434.95021248 14.19357967 C431.64904295 14.2047522 428.3481472 14.22985169 425.04706001 14.25531673 C422.80552748 14.26535031 420.56399068 14.2744755 418.32245064 14.28266048 C412.83472741 14.30468195 407.34716328 14.33813052 401.85956001 14.38031673 Z " fill="#000000" transform="translate(34.14043998718262,-0.38031673431396484)"/>
</svg>
