<?xml version="1.0" encoding="UTF-8"?>
<svg version="1.1" xmlns="http://www.w3.org/2000/svg" width="512" height="512">
<path d="M0 0 C3.58785432 1.52566558 6.93101759 3.44105498 10.3125 5.375 C11.28437256 5.91866211 12.25624512 6.46232422 13.25756836 7.02246094 C16.18127154 8.66547039 19.09270485 10.32815376 22 12 C22.81662109 12.46889648 23.63324219 12.93779297 24.47460938 13.42089844 C29.34676434 16.23079855 34.18059572 19.10077937 39 22 C39.64952637 22.38736328 40.29905273 22.77472656 40.96826172 23.17382812 C42.81588452 24.27652449 44.6588049 25.38661185 46.5 26.5 C47.5415625 27.1290625 48.583125 27.758125 49.65625 28.40625 C52 30 52 30 53 32 C53.57342233 38.19296117 53.57342233 38.19296117 51.3125 41.375 C48.68219009 43.22332588 47.19122949 43.71303449 44 44 C41.32397461 43.0378418 41.32397461 43.0378418 38.46484375 41.51171875 C37.41280762 40.95403809 36.36077148 40.39635742 35.27685547 39.82177734 C29.99712344 36.88649494 24.76260316 33.88663039 19.5625 30.8125 C18.51384766 30.19697266 17.46519531 29.58144531 16.38476562 28.94726562 C11.91067603 26.31863119 7.44871768 23.67133203 3 21 C2.47485687 40.671377 2.11261566 60.33946798 1.94041061 80.01717377 C1.85669832 89.15609745 1.72118876 98.28858743 1.46044922 107.42431641 C1.23311112 115.394464 1.10629762 123.35905358 1.09648919 131.33254194 C1.08788142 135.55185149 1.03153875 139.75746691 0.85436249 143.9733429 C-0.39959442 160.63384406 -0.39959442 160.63384406 5.30439949 175.56627274 C13.43774891 183.28839383 24.53431432 187.51143811 35 191 C35.37584229 190.34854004 35.75168457 189.69708008 36.13891602 189.02587891 C47.00927734 170.18391927 57.87963867 151.34195964 68.75 132.5 C69.36955566 131.4260498 69.98911133 130.35209961 70.62744141 129.24560547 C71.86911527 127.0934787 73.11097522 124.94145927 74.35302734 122.78955078 C77.26166823 117.74969023 80.16851898 112.70882508 83.06854248 107.66400146 C84.09275665 105.88250422 85.11757651 104.10135678 86.14257812 102.3203125 C87.42633375 100.08923375 88.70895939 97.85750427 89.99023438 95.625 C92.56196371 91.15786352 95.149475 86.72384605 97.9296875 82.3828125 C100.17400255 79.37669603 100.17400255 79.37669603 100 77 C99.34515625 76.6376123 98.6903125 76.27522461 98.015625 75.90185547 C95.00698563 74.23233684 92.00349876 72.55374779 89 70.875 C87.97003906 70.30523437 86.94007812 69.73546875 85.87890625 69.1484375 C69.73712877 60.100817 69.73712877 60.100817 67.75 54.4375 C68 51 68 51 69.4375 48.0625 C72.36403529 45.70699599 74.09061482 45.55376333 77.78588867 45.65893555 C81.81529255 46.27962991 84.98912031 48.2911726 88.4375 50.375 C89.20594238 50.82254639 89.97438477 51.27009277 90.76611328 51.73120117 C92.37310216 52.66940343 93.97594091 53.61474767 95.57470703 54.56689453 C97.96907832 55.98172838 100.3835953 57.35329318 102.80859375 58.71484375 C104.33115083 59.57998751 105.8533019 60.44584628 107.375 61.3125 C108.08197021 61.70808105 108.78894043 62.10366211 109.51733398 62.51123047 C113.53696643 64.84464251 116.48760468 66.96945111 119 71 C119.24169922 72.66869141 119.24169922 72.66869141 119.48828125 74.37109375 C121.99449046 80.38729105 127.57038339 82.20489082 133.1875 85.0625 C141.4862848 89.3854773 148.66476692 93.41635246 155.11328125 100.234375 C157.34985476 102.32740031 159.31547756 103.2056282 162.1875 104.25 C163.06792969 104.58515625 163.94835937 104.9203125 164.85546875 105.265625 C175.31209937 107.70767041 181.40678737 104.13459383 190.375 98.6875 C191.61837757 97.95285026 192.8629382 97.22019931 194.10864258 96.48950195 C197.18549893 94.67980278 200.25006468 92.85051038 203.31048584 91.01318359 C206.63223669 89.02116509 209.96478743 87.04773805 213.30517578 85.0871582 C214.83393403 84.18898531 216.3575697 83.28200236 217.87451172 82.36401367 C230.08569213 75.14047826 243.64545392 73.1279499 257.625 75.8125 C268.08100342 78.77618839 277.49069481 85.20818271 286.81054688 90.63720703 C288.68945799 91.73129347 290.56973923 92.82303051 292.45141602 93.91235352 C294.2253341 94.94169137 295.99440267 95.97945057 297.75756836 97.02709961 C308.95716849 103.55623761 317.9101754 105.54517938 330.54296875 102.33984375 C333.29508533 101.04725982 333.29508533 101.04725982 335.4765625 97.8671875 C339.89873182 92.41968981 346.13459837 89.51795712 352.1875 86.1875 C353.38808982 85.51495563 354.58796621 84.841136 355.78710938 84.16601562 C357.97701464 82.93504789 360.17026624 81.7100004 362.36791992 80.49291992 C364.28943858 79.40303155 366.16192376 78.22538416 368 77 C368.0825 75.9275 368.165 74.855 368.25 73.75 C369.28001601 68.59991993 371.88586351 67.01723232 376 64 C378.57727975 62.36143787 381.23655034 60.92333222 383.9375 59.5 C385.54429855 58.63005586 387.14969581 57.75752003 388.75390625 56.8828125 C389.60484863 56.41907227 390.45579102 55.95533203 391.33251953 55.47753906 C396.06086157 52.85847206 400.71455995 50.11250446 405.375 47.375 C414.80556491 41.84608381 424.27936006 36.39748401 433.77819824 30.98718262 C442.09083122 26.25106784 450.37002621 21.46109969 458.625 16.625 C461.50537864 14.94466036 464.38691619 13.26634372 467.26953125 11.58984375 C469.07591238 10.5380596 470.88063098 9.48341443 472.68359375 8.42578125 C475.15675782 6.97907325 477.63911359 5.54970528 480.125 4.125 C480.84123535 3.7017041 481.5574707 3.2784082 482.29541016 2.84228516 C486.34832795 0.54657648 489.21173052 -0.61334456 494 0 C498.63235294 2.26470588 498.63235294 2.26470588 500 5 C500.10766776 7.3195972 500.14839649 9.64236935 500.16062927 11.96443176 C500.16571709 12.6894851 500.17080491 13.41453844 500.17604691 14.1615631 C500.19180724 16.60355638 500.20030582 19.04552001 500.20874023 21.48754883 C500.21827571 23.23340545 500.22816673 24.97926017 500.23838806 26.72511292 C500.26980501 32.46906279 500.29004163 38.2130273 500.30859375 43.95703125 C500.31189107 44.93349035 500.31518839 45.90994945 500.31858563 46.91599822 C500.34936479 56.12070426 500.37607895 65.32541349 500.39300442 74.53015614 C500.41492516 86.31435568 500.45692359 98.09810038 500.52644199 109.88211805 C500.57363684 118.1624203 500.59793184 126.44259962 500.6052013 134.72303218 C500.61016396 139.67144291 500.62530303 144.61934129 500.6649456 149.56760597 C500.70174626 154.22249718 500.71024345 158.87658202 500.69693947 163.53159142 C500.69699353 165.24044898 500.70733398 166.94934169 500.7286911 168.6580658 C500.75629512 170.99122772 500.74690331 173.32143275 500.72825623 175.65461731 C500.73460413 177.61275722 500.73460413 177.61275722 500.74108028 179.61045551 C499.70629543 184.34334261 497.94626671 185.28927864 494 188 C491.91171222 189.31070225 489.78988938 190.56922585 487.640625 191.77734375 C487.05134216 192.11117569 486.46205933 192.44500763 485.85491943 192.78895569 C483.98977192 193.84419111 482.12015642 194.8911722 480.25 195.9375 C478.40090922 196.9786438 476.55281505 198.02152588 474.70530701 199.06547546 C473.50184961 199.7448141 472.29731895 200.42225517 471.09169006 201.09773254 C466.70506838 203.56459617 462.43576494 206.18436212 458.2175293 208.92822266 C453.35240134 211.27963868 447.99066517 210.66355506 443 209 C438.74546072 210.85347479 434.81017707 213.33768521 430.8125 215.6875 C429.68134766 216.32623047 428.55019531 216.96496094 427.38476562 217.62304688 C426.31548828 218.24630859 425.24621094 218.86957031 424.14453125 219.51171875 C423.15815674 220.08365967 422.17178223 220.65560059 421.15551758 221.24487305 C420.44419678 221.82406494 419.73287598 222.40325684 419 223 C418.84730711 226.71489375 418.84730711 226.71489375 419.5 229.125 C421.04411779 238.00367732 420.22561869 246.64103561 415.5234375 254.453125 C410.3926706 261.52842912 404.44376308 265.67796515 396 268 C396.23783203 269.06154297 396.23783203 269.06154297 396.48046875 270.14453125 C398.4748199 281.10596499 396.5138929 290.04166065 390.375 299.25 C385.38941409 305.45372654 378.1829526 309.43384775 370.375 310.828125 C365.40104257 311.18808245 359.52883114 311.26441557 355 309 C354.98582031 309.60585938 354.97164063 310.21171875 354.95703125 310.8359375 C354.41420464 320.37208067 350.97632646 328.06182816 343.86328125 334.53515625 C336.541242 340.29147642 327.33443139 342.62841581 318.046875 341.70703125 C314.58993205 341.0348479 311.33970414 340.11323471 308 339 C307.92523438 339.67804688 307.85046875 340.35609375 307.7734375 341.0546875 C306.50041709 350.06567511 303.47935335 357.53590691 296.25 363.375 C287.55113733 369.16327913 279.44545182 371.20573259 269 370 C261.21976642 368.32885452 254.69172079 364.23961166 248.12548828 359.91040039 C244.79302168 357.67400767 244.79302168 357.67400767 240.9375 357.05078125 C240.298125 357.36402344 239.65875 357.67726563 239 358 C238.03964844 358.45375 237.07929688 358.9075 236.08984375 359.375 C235.04957031 359.91125 234.00929687 360.4475 232.9375 361 C224.28054062 365.45153906 215.65952901 366.47397575 206.0703125 364.3515625 C195.97605266 360.6723463 190.67144723 354.3978593 186.12890625 344.8671875 C185.08874022 342.22538173 184.445631 339.79671867 184 337 C182.90945312 337.34224609 182.90945312 337.34224609 181.796875 337.69140625 C172.22270996 340.42863549 163.81193747 341.09591653 154.625 336.75 C146.30219747 332.0759141 141.11765827 326.54624785 137.6875 317.5625 C136.86695974 313.31060958 136.82396841 309.31277398 137 305 C136.05125 305.20625 135.1025 305.4125 134.125 305.625 C125.00364979 306.85463876 117.18800503 303.39722177 110 298 C102.62155541 291.38156687 99.70331751 283.29702679 99.078125 273.578125 C99.00151884 271.0501218 98.98180581 268.52899252 99 266 C98.3709375 265.85304688 97.741875 265.70609375 97.09375 265.5546875 C87.09395367 262.93425894 80.50555319 257.86912207 74.80859375 249.18359375 C70.8755222 241.96154251 71.43691798 233.98468768 72 226 C72.33 225.34 72.66 224.68 73 224 C72.18660156 223.77183594 71.37320313 223.54367187 70.53515625 223.30859375 C66.16871921 221.69228832 62.40999867 219.46681579 58.4375 217.0625 C57.69564453 216.61970703 56.95378906 216.17691406 56.18945312 215.72070312 C55.46564453 215.28822266 54.74183594 214.85574219 53.99609375 214.41015625 C53.30370605 213.99652832 52.61131836 213.58290039 51.89794922 213.15673828 C50.29633985 212.18060949 48.72440468 211.15603666 47.16015625 210.12109375 C46.44730469 209.75113281 45.73445313 209.38117188 45 209 C44.01 209.33 43.02 209.66 42 210 C32.89428622 211.52872838 26.86608267 207.74539933 19.3125 203.0625 C18.16251432 202.36944714 17.01138101 201.67829513 15.85913086 200.98901367 C13.59490643 199.63055107 11.34003023 198.25958573 9.08789062 196.88085938 C6.43609536 195.26562924 3.76892023 193.68959504 1.078125 192.140625 C-9.75300472 185.86176389 -9.75300472 185.86176389 -12 182 C-12.38031673 178.75470734 -12.38031673 178.75470734 -12.38768005 174.82629395 C-12.39306559 174.10290974 -12.39845113 173.37952554 -12.40399987 172.6342206 C-12.41831002 170.20975017 -12.41116844 167.78582338 -12.40405273 165.36132812 C-12.40975467 163.62340353 -12.41671825 161.88548267 -12.42485046 160.14756775 C-12.44281532 155.42655836 -12.4416074 150.70573449 -12.43590808 145.98470116 C-12.43282141 142.04561853 -12.43890277 138.10657182 -12.44494683 134.1674943 C-12.45900101 124.8767693 -12.45742298 115.58613624 -12.44604492 106.29541016 C-12.43455901 96.70456023 -12.44864529 87.11398977 -12.4754414 77.52317667 C-12.49757681 69.29293295 -12.50424077 61.06277709 -12.49836498 52.8325057 C-12.49498948 47.91504824 -12.49744991 42.99777001 -12.51461601 38.08033752 C-12.53004902 33.45751867 -12.52617034 28.83511493 -12.50731087 24.2123127 C-12.50361503 22.51435489 -12.50676232 20.81636658 -12.51719666 19.11843681 C-12.53034084 16.80304386 -12.51891936 14.48903859 -12.50120544 12.17370605 C-12.50099616 10.87732964 -12.50078688 9.58095322 -12.50057125 8.24529266 C-11.91530306 4.45089466 -10.99650355 3.31019004 -8 1 C-5.01311016 -0.49344492 -3.36831904 -0.38131914 0 0 Z M476 25.0625 C474.4472923 25.98811697 472.89385964 26.91251853 471.33984375 27.8359375 C470.48632324 28.34350586 469.63280273 28.85107422 468.75341797 29.37402344 C463.71239729 32.35089857 458.63613255 35.26667373 453.5625 38.1875 C452.45712891 38.82437744 451.35175781 39.46125488 450.21289062 40.11743164 C447.94039943 41.4266623 445.66777476 42.73566132 443.39501953 44.04443359 C440.08420715 45.95149581 436.77430739 47.86012956 433.46484375 49.76953125 C432.39540527 50.38650879 431.3259668 51.00348633 430.22412109 51.63916016 C428.08477563 52.87390884 425.94577477 54.1092548 423.80712891 55.34521484 C418.70651947 58.29166456 413.60202312 61.23071515 408.48348999 64.14590454 C406.05231273 65.53110231 403.62336093 66.92017604 401.19458008 68.30957031 C399.46847452 69.29481995 397.73914623 70.27441661 396.00976562 71.25390625 C394.97400391 71.846875 393.93824219 72.43984375 392.87109375 73.05078125 C391.95255615 73.57325439 391.03401855 74.09572754 390.08764648 74.6340332 C387.87409903 75.832143 387.87409903 75.832143 387 78 C387.96475267 80.27131474 387.96475267 80.27131474 389.47265625 82.8203125 C390.03581543 83.81893311 390.59897461 84.81755371 391.17919922 85.84643555 C392.11143311 87.46932495 392.11143311 87.46932495 393.0625 89.125 C393.69430176 90.2385083 394.32610352 91.3520166 394.97705078 92.49926758 C399.39233118 100.25798325 403.87551482 107.97735166 408.375 115.6875 C408.95660889 116.68531494 409.53821777 117.68312988 410.13745117 118.71118164 C412.6127282 122.94950475 415.09835052 127.1781352 417.65625 131.3671875 C418.03861816 132.00438721 418.42098633 132.64158691 418.81494141 133.2980957 C419.7800186 134.90440912 420.7602944 136.50156642 421.7421875 138.09765625 C423.26267147 141.60610217 423.30042283 144.21285163 423 148 C422 149.9375 422 149.9375 420 151 C415.07906628 152.06620231 415.07906628 152.06620231 412 151 C406.30140391 144.82780492 402.44085732 136.70322885 398.4375 129.375 C391.48621375 116.79869721 384.28755288 104.38415337 377 92 C373.55688942 93.31293711 370.35788604 94.8143342 367.13671875 96.6015625 C366.25048828 97.09140625 365.36425781 97.58125 364.45117188 98.0859375 C363.53916016 98.59382813 362.62714844 99.10171875 361.6875 99.625 C360.29047852 100.3984375 360.29047852 100.3984375 358.86523438 101.1875 C356.57536531 102.45573517 354.28702285 103.72664162 352 105 C358.28104936 117.17197143 365.18007614 128.9581148 372.11035156 140.76904297 C375.24246651 146.124393 378.34048344 151.49929909 381.4375 156.875 C382.05375244 157.94419678 382.67000488 159.01339355 383.30493164 160.11499023 C384.5613895 162.29529976 385.81765457 164.4757204 387.07373047 166.65625 C389.73034016 171.26777425 392.38829557 175.8785214 395.04711914 180.48876953 C396.30312898 182.66664882 397.55884939 184.84469506 398.81420898 187.02294922 C402.85394615 194.02831943 406.91927676 201.01842828 411 208 C419.2152029 203.99765791 427.16056635 199.69810031 435 195 C434.11672055 189.89937218 431.06185313 185.69783214 428.49609375 181.2890625 C426.92288204 177.8304613 426.60420787 175.74647071 427 172 C428.65470431 169.3340875 429.89414994 169.02927768 432.9375 168.1875 C436.27519416 167.98315138 437.26400623 168.20293279 440 170 C441.52392578 172.13891602 441.52392578 172.13891602 442.9453125 174.75390625 C443.72455078 176.15866211 443.72455078 176.15866211 444.51953125 177.59179688 C445.04933594 178.57212891 445.57914062 179.55246094 446.125 180.5625 C447.18533909 182.50391222 448.25021443 184.44285601 449.3203125 186.37890625 C449.78711426 187.2407251 450.25391602 188.10254395 450.73486328 188.99047852 C451.8445694 191.13838809 451.8445694 191.13838809 454 192 C456.56742964 190.87030898 456.56742964 190.87030898 459.453125 189.17578125 C460.54753906 188.55896484 461.64195312 187.94214844 462.76953125 187.30664062 C463.3413916 186.97897705 463.91325195 186.65131348 464.50244141 186.3137207 C466.2249604 185.32684582 467.9542415 184.35180414 469.68359375 183.37695312 C472.8046158 181.60788611 475.91840764 179.83694589 479 178 C480.03584543 177.43352123 481.07169086 176.86704247 482.13892555 176.28339767 C485.23608824 174.28173942 485.23608824 174.28173942 485.73828697 171.11835098 C485.73275621 169.99376354 485.72722546 168.8691761 485.7215271 167.71051025 C485.72977509 166.41764603 485.73802307 165.1247818 485.746521 163.79273987 C485.72528726 162.36214374 485.70347842 160.93155606 485.68115234 159.50097656 C485.67945972 157.99301725 485.68041025 156.48505299 485.68380737 154.97709656 C485.68552997 150.8840559 485.65023865 146.79206875 485.60836363 142.69927311 C485.57087284 138.42186375 485.5673326 134.14443063 485.56021118 129.86688232 C485.54155737 121.76715069 485.49231342 113.66790456 485.43211424 105.56838679 C485.3650655 96.3472564 485.33206427 87.1261029 485.30194163 77.90478945 C485.2392146 58.93625097 485.13366947 39.96816451 485 21 C481.58296969 21 478.86208754 23.33368885 476 25.0625 Z M218.3125 100.875 C217.33788818 101.43582275 216.36327637 101.99664551 215.35913086 102.57446289 C213.297643 103.76290415 211.23851661 104.95545002 209.18164062 106.15185547 C205.94574317 108.03151659 202.70033521 109.89386788 199.453125 111.75390625 C197.32247707 112.98100787 195.19225632 114.20885155 193.0625 115.4375 C192.07483643 116.00388184 191.08717285 116.57026367 190.06958008 117.15380859 C178.2952043 123.35711409 178.2952043 123.35711409 171.33203125 133.984375 C170.6230413 138.28836107 171.41470527 141.70619061 173.1875 145.625 C176.87413409 150.45576191 180.79441829 153.52257294 186.9375 154.4375 C196.42132444 154.29258587 206.70327296 145.95293109 214.625 141.25 C216.71940294 140.02102849 218.81446173 138.79317402 220.91015625 137.56640625 C221.93512207 136.96586426 222.96008789 136.36532227 224.01611328 135.74658203 C228.35413838 133.20737146 232.69514986 130.67599224 237.0625 128.1875 C237.76906738 127.77338867 238.47563477 127.35927734 239.20361328 126.93261719 C244.00480628 124.22258467 248.35833835 122.29730821 254.01806641 123.3894043 C260.80023488 125.39236104 266.83837397 128.99814661 272.9375 132.5 C273.97712891 133.08136719 275.01675781 133.66273438 276.08789062 134.26171875 C283.74323808 138.61485712 283.74323808 138.61485712 286 142 C286.53748871 148.01987353 286.53748871 148.01987353 284.9375 150.9375 C281.89812375 152.60425472 279.32139331 152.6721911 276 152 C270.88881541 149.5917499 266.15955157 146.50353192 261.36132812 143.53320312 C260.37455078 142.94345703 259.38777344 142.35371094 258.37109375 141.74609375 C257.0396936 140.92129517 257.0396936 140.92129517 255.68139648 140.07983398 C252.2726484 138.70708585 250.5112475 139.00795332 247 140 C244.40474168 141.17791857 244.40474168 141.17791857 241.90234375 142.73828125 C240.94593994 143.30571045 239.98953613 143.87313965 239.00415039 144.45776367 C237.99215576 145.06982666 236.98016113 145.68188965 235.9375 146.3125 C233.78942448 147.58654801 231.6409796 148.85997344 229.4921875 150.1328125 C228.4103418 150.77766602 227.32849609 151.42251953 226.21386719 152.08691406 C221.34725476 154.9838128 216.46269223 157.84783305 211.5625 160.6875 C210.73032959 161.17968018 209.89815918 161.67186035 209.04077148 162.17895508 C199.39798546 167.75730533 190.29883339 170.90205186 179.13671875 168.34375 C170.18602385 165.47160447 163.65712074 160.27350648 158.96484375 152.10546875 C154.57843649 142.53351122 155.73332153 133.68155486 159 124 C159.33 123.01 159.66 122.02 160 121 C156.04 119.35 152.08 117.7 148 116 C146.47647173 118.64078234 144.952948 121.28156731 143.42944336 123.92236328 C142.08267577 126.25671642 140.73584393 128.59103235 139.38891602 130.92529297 C135.97622702 136.83978489 132.56460594 142.75488441 129.15625 148.671875 C127.91670377 150.82293805 126.67712079 152.97397992 125.4375 155.125 C124.82680664 156.18533447 124.21611328 157.24566895 123.58691406 158.33813477 C120.41702199 163.83531581 117.23004888 169.32169253 114.015625 174.79296875 C113.37310791 175.88786621 112.73059082 176.98276367 112.06860352 178.11083984 C110.84560282 180.19240132 109.61968593 182.27225312 108.39038086 184.35009766 C107.84260986 185.28257324 107.29483887 186.21504883 106.73046875 187.17578125 C106.24989014 187.98958252 105.76931152 188.80338379 105.27416992 189.6418457 C103.97864529 192.03952196 102.96119424 194.45200056 102 197 C105.22210612 195.75273311 108.36141053 194.37842171 111.5 192.9375 C119.94268572 189.19601325 127.74493618 189.07032445 136.48046875 191.96875 C144.61412331 195.29787373 150.00877181 200.14840355 154 208 C155.86740123 212.59520918 156.2702571 216.48970327 156.25 221.4375 C156.25773437 223.32275391 156.25773437 223.32275391 156.265625 225.24609375 C155.98730667 229.17938665 155.21274662 232.27032288 154 236 C154.6290625 236.25652344 155.258125 236.51304687 155.90625 236.77734375 C163.97830561 240.3878867 170.38621582 245.56021443 173.9375 253.875 C175.48289487 258.76875041 175.72826349 263.9025979 176 269 C176.76183594 269.02578125 177.52367187 269.0515625 178.30859375 269.078125 C185.36237104 269.46559841 190.84425562 270.50619913 197 274 C197.62648438 274.33773437 198.25296875 274.67546875 198.8984375 275.0234375 C204.94947829 278.74918751 208.81048714 284.83359109 210.74609375 291.61328125 C211.06485826 293.16262501 211.34711238 294.72032078 211.578125 296.28515625 C211.71734375 296.85105469 211.8565625 297.41695312 212 298 C213.95839822 299.23686176 213.95839822 299.23686176 216.125 298.5625 C225.37290223 296.75312783 233.70891153 298.79190466 241.75 303.5625 C248.00805091 308.00405471 252.49840078 315.49200392 254 323 C254.45900686 330.02480069 254.0705484 336.27071769 252 343 C264.37341149 352.13558218 264.37341149 352.13558218 279 354 C283.33727036 352.57807437 286.30932303 350.7079439 289.5 347.4375 C291.62942867 342.55755931 291.77376862 338.24443173 291 333 C287.64056914 326.15671491 281.62037542 322.62756753 275.25 318.8125 C269.11260331 315.11260331 269.11260331 315.11260331 268 314 C267.53976311 306.86632826 267.53976311 306.86632826 269.0625 304 C272.12406689 302.41983644 274.68933395 302.3536645 278 303 C282.20175032 304.85608151 286.10912357 307.16880187 290.0625 309.5 C291.17415527 310.13768311 292.28581055 310.77536621 293.43115234 311.43237305 C298.14513368 314.14155377 302.83194623 316.89487866 307.50390625 319.67578125 C308.13224365 320.04574219 308.76058105 320.41570312 309.40795898 320.796875 C310.99069353 321.7330581 312.56231782 322.68795722 314.1328125 323.64453125 C318.09835324 325.51924874 321.84867505 326.302471 326.22265625 325.6875 C331.52540443 323.70600599 335.18936882 320.99345814 338 316 C339.61028312 311.20359518 339.46411581 307.29382912 337.375 302.6875 C334.55817418 297.31299634 329.29888094 294.45722634 324.17578125 291.5390625 C323.06396484 290.90226563 321.95214844 290.26546875 320.80664062 289.609375 C319.64204301 288.94771259 318.4773289 288.28625516 317.3125 287.625 C294.74254967 274.74254967 294.74254967 274.74254967 292 272 C291.31803279 264.83934426 291.31803279 264.83934426 293.625 262 C296.65951681 260.72230871 298.71523365 260.74623159 302 261 C304.83886719 262.23071289 304.83886719 262.23071289 307.796875 263.97265625 C308.90836914 264.61823486 310.01986328 265.26381348 311.16503906 265.92895508 C312.36007023 266.64006247 313.55505614 267.35124591 314.75 268.0625 C315.98847486 268.78609109 317.22774507 269.50832246 318.46777344 270.22924805 C321.6798063 272.0999371 324.88359059 273.98427733 328.08544922 275.87231445 C332.33700057 278.37651181 336.59786186 280.86469535 340.86425781 283.34350586 C343.07066078 284.62664979 345.27334175 285.916222 347.47167969 287.21313477 C357.42645677 293.61166626 357.42645677 293.61166626 368.6875 294.5 C374.18703502 292.94763556 376.81061093 289.88661714 379.8125 285.125 C381.72176135 280.10062803 381.6460626 275.97321289 379.6875 271 C377.69985796 267.49061137 375.52125872 265.79303556 372.1015625 263.6953125 C371.11728271 263.08977539 370.13300293 262.48423828 369.11889648 261.86035156 C364.00568889 258.81043831 358.8583435 255.82600918 353.6875 252.875 C344.93580383 247.85048044 336.19749451 242.80538134 327.5 237.6875 C326.56889404 237.14270996 325.63778809 236.59791992 324.6784668 236.03662109 C323.82551025 235.53340332 322.97255371 235.03018555 322.09375 234.51171875 C321.34802734 234.07303467 320.60230469 233.63435059 319.83398438 233.18237305 C318 232 318 232 316 230 C315.57292096 226.15628861 315.48784228 223.8535962 317.5 220.5 C320.462878 218.7222732 322.27296325 218.84216271 325.63574219 219.34863281 C330.48954392 220.68588426 334.61911184 223.5057486 338.875 226.125 C340.99424158 227.3954493 343.11405472 228.66494556 345.234375 229.93359375 C346.33458984 230.5972998 347.43480469 231.26100586 348.56835938 231.94482422 C354.38171188 235.42638379 360.25364165 238.80500572 366.125 242.1875 C367.76831299 243.14003662 367.76831299 243.14003662 369.44482422 244.11181641 C370.47623535 244.70784668 371.50764648 245.30387695 372.5703125 245.91796875 C373.47539551 246.44156982 374.38047852 246.9651709 375.31298828 247.50463867 C381.52672512 250.96267412 385.86603723 253.09370858 393 252 C397.23281997 250.60565931 400.02655404 248.43036716 402.4375 244.6875 C404.24909751 241.02526193 404.51137231 238.09097851 404 234 C400.66795415 224.33706704 395.38961365 220.72673015 386.75 216.0625 C384.65405773 214.90525664 382.55903283 213.74635049 380.46484375 212.5859375 C379.38960449 211.99264648 378.31436523 211.39935547 377.20654297 210.78808594 C372.19825841 207.99528282 367.25584491 205.09323134 362.3125 202.1875 C354.03127464 197.33350671 345.7189081 192.53850033 337.37893677 187.78649902 C335.58050172 186.76027218 333.78396131 185.73080898 331.98803711 184.70019531 C326.85646663 181.75725763 321.71941156 178.83279656 316.51953125 176.01171875 C315.721521 175.56924805 314.92351074 175.12677734 314.10131836 174.67089844 C312.67587782 173.88119281 311.2410832 173.10800316 309.79516602 172.35644531 C306.29274881 170.38911451 305.06921772 169.16732158 303.51171875 165.40234375 C303 162 303 162 303.9375 159.125 C306.15456651 156.84074966 307.62136668 156.11584814 310.77661133 155.75878906 C315.96929606 156.32213292 320.47773809 159.68780863 324.875 162.3125 C325.99269775 162.95968994 327.11039551 163.60687988 328.26196289 164.27368164 C331.51881367 166.16465794 334.76074197 168.07908712 338 170 C339.50058811 170.87882441 341.00178804 171.75660597 342.50390625 172.6328125 C345.13653703 174.17263497 347.76334884 175.72180161 350.38671875 177.27734375 C355.90031145 180.53966818 361.43696134 183.76215298 366.98025513 186.97366333 C368.71538388 187.97992491 370.4484129 188.98980435 372.18139648 189.99975586 C373.25075439 190.61858643 374.3201123 191.23741699 375.421875 191.875 C376.37674805 192.42929687 377.33162109 192.98359375 378.31542969 193.5546875 C380.8303263 194.90865148 383.32729405 196.00031334 386 197 C384.575794 193.19037936 382.82091117 189.75596032 380.796875 186.23046875 C380.15347168 185.10672852 379.51006836 183.98298828 378.84716797 182.82519531 C378.14825021 181.61255053 377.44919066 180.39998746 376.75 179.1875 C376.02602393 177.92686145 375.30223079 176.66611784 374.57861328 175.40527344 C368.36351406 164.58731478 362.08317904 153.8074398 355.77929688 143.04101562 C352.5552732 137.53080173 349.34084839 132.01498765 346.125 126.5 C344.94014285 124.46872744 343.75525078 122.43747524 342.5703125 120.40625 C341.71354167 118.9375 340.85677083 117.46875 340 116 C339.05640625 116.28875 338.1128125 116.5775 337.140625 116.875 C319.16248648 122.16601208 305.51333073 119.78006332 289 111 C284.92245017 108.70515652 280.89505013 106.33137501 276.875 103.9375 C254.48895464 90.62339236 241.66606072 87.2388342 218.3125 100.875 Z M111 92 C110.58862793 92.72251953 110.17725586 93.44503906 109.75341797 94.18945312 C101.99976042 107.80080872 94.21516488 121.39074205 86.296875 134.90722656 C83.16615219 140.26026675 80.06110911 145.62691346 76.9921875 151.015625 C76.6529425 151.61129776 76.31369751 152.20697052 75.96417236 152.82069397 C74.5954794 155.2250664 73.2273295 157.62974444 71.86083984 160.03536987 C66.87884915 168.80179225 61.77931182 177.48745601 56.45263672 186.04980469 C55.9938916 186.7977832 55.53514648 187.54576172 55.0625 188.31640625 C54.66160156 188.96037354 54.26070313 189.60434082 53.84765625 190.26782227 C52.78022465 192.12769877 52.78022465 192.12769877 53 195 C60.59 199.29 68.18 203.58 76 208 C78.84662178 204.44172277 80.95715538 201.54117419 83.1015625 197.640625 C83.66866943 196.61654541 84.23577637 195.59246582 84.82006836 194.53735352 C85.4156958 193.45252686 86.01132324 192.3677002 86.625 191.25 C90.65708274 183.97685707 94.69013149 176.71249288 98.9375 169.5625 C105.05018772 159.26108889 111.01017749 148.87216503 116.98730469 138.49169922 C119.06284379 134.88916179 121.14445441 131.29014978 123.2265625 127.69140625 C124.25598876 125.91108665 125.28531541 124.13070949 126.31460571 122.35031128 C127.29322574 120.65832427 128.27294468 118.966973 129.25268555 117.27563477 C130.14274292 115.73540649 130.14274292 115.73540649 131.05078125 114.1640625 C131.83449097 112.80982178 131.83449097 112.80982178 132.6340332 111.42822266 C133.8243116 109.312314 134.93850686 107.18271711 136 105 C132.21225306 102.82642556 128.41917971 100.6623228 124.625 98.5 C123.54476562 97.87996094 122.46453125 97.25992188 121.3515625 96.62109375 C120.3203125 96.03457031 119.2890625 95.44804687 118.2265625 94.84375 C117.27346191 94.29912109 116.32036133 93.75449219 115.33837891 93.19335938 C113.14064279 91.84847877 113.14064279 91.84847877 111 92 Z M106.4375 212.875 C105.72142578 213.29652344 105.00535156 213.71804688 104.26757812 214.15234375 C94.10076829 219.7254397 94.10076829 219.7254397 88 229 C87.34279633 234.0358231 87.39373851 237.78747702 89.6875 242.375 C93.76697257 247.00575265 96.99497925 249.77846458 103.28515625 250.2421875 C109.8967909 249.81114507 115.33216928 246.19964876 121 243 C121.70560059 242.60393555 122.41120117 242.20787109 123.13818359 241.79980469 C125.3167529 240.55893988 127.47325689 239.28675176 129.625 238 C130.63711548 237.41436279 130.63711548 237.41436279 131.66967773 236.81689453 C136.44305865 233.87191214 138.6778433 231.12954017 141 226 C141.99691293 221.48457084 141.47462636 217.30735508 139.375 213.1875 C135.83525774 208.43679329 132.88690987 206.45651045 127.125 205.0625 C119.54378612 204.4613268 112.69369748 209.10429636 106.4375 212.875 Z M130.8125 254.625 C129.64170898 255.26501953 129.64170898 255.26501953 128.44726562 255.91796875 C122.88126797 259.08100389 118.68388052 262.28780885 115.96875 268.2734375 C114.71331361 273.90197729 114.93007584 278.01409481 118 283 C121.6702377 287.01978415 125.28502611 289.04685237 130.5859375 289.96875 C139.35847947 290.08231041 149.68574695 283.18092073 155.76953125 277.28515625 C159.73052209 272.61643794 160.35012295 269.51379063 160.28125 263.5390625 C159.73281999 258.5879582 156.99954217 255.90202586 153.4375 252.6875 C145.48805442 247.18403768 138.29414501 250.2476419 130.8125 254.625 Z M167.75 289.1875 C167.069375 289.57486328 166.38875 289.96222656 165.6875 290.36132812 C160.3926157 293.46540274 155.19167123 297.01182723 153 303 C152.11120893 307.97722999 152.62172543 312.00188737 155.1875 316.375 C158.46299978 320.97716869 161.27599223 322.60432609 166.8125 323.875 C175.52786926 324.62296079 183.28260483 318.94588699 190 314 C193.67902523 310.8167809 196.15448087 307.8583704 197.0625 303 C197.35586124 297.38267552 195.1896907 293.37272004 191.5625 289.1875 C187.22386858 285.48379025 184.00854004 284.53559471 178.38085938 284.67041016 C174.3180506 285.23283754 171.20824653 287.07301012 167.75 289.1875 Z M202.5625 324.3125 C200.32578065 328.15965729 199.68946354 331.56376487 200 336 C201.59717213 341.33643393 204.27483144 344.97104579 209 348 C214.19105378 349.73035126 218.66082426 349.90590485 223.82421875 347.90625 C230.56560406 344.44818605 236.52552294 340.42343117 239 333 C239.58473186 327.03573502 238.39108446 322.84440637 235 318 C223.50544863 307.81164765 211.83939808 315.51134028 202.5625 324.3125 Z " fill="#000000" transform="translate(12,71)"/>
</svg>
